# MagicaVoxel @ Ephtracy

# group
g 4-Way Corridor

# material
mtllib 4-Way Corridor.mtl
usemtl palette

# normals
vn -1 0 0
vn 1 0 0
vn 0 0 1
vn 0 0 -1
vn 0 -1 0
vn 0 1 0

# texcoords
vt 0.974609 0.5
vt 0.978516 0.5
vt 0.982422 0.5

# verts
v -9 0 9
v -9 0 -9
v -9 1 9
v -9 1 6
v -9 1 -6
v -9 1 -9
v -9 2 7
v -9 2 6
v -9 2 -6
v -9 2 -7
v -9 3 8
v -9 3 7
v -9 3 -7
v -9 3 -8
v -9 18 8
v -9 18 7
v -9 18 -7
v -9 18 -8
v -9 19 7
v -9 19 6
v -9 19 -6
v -9 19 -7
v -9 20 9
v -9 20 6
v -9 20 -6
v -9 20 -9
v -9 21 9
v -9 21 -9
v 6 1 9
v 6 1 6
v 6 1 -6
v 6 1 -9
v 6 2 9
v 6 2 6
v 6 2 -6
v 6 2 -9
v 6 19 9
v 6 19 6
v 6 19 -6
v 6 19 -9
v 6 20 9
v 6 20 6
v 6 20 -6
v 6 20 -9
v 7 2 9
v 7 2 7
v 7 2 -7
v 7 2 -9
v 7 3 9
v 7 3 7
v 7 3 -7
v 7 3 -9
v 7 18 9
v 7 18 7
v 7 18 -7
v 7 18 -9
v 7 19 9
v 7 19 7
v 7 19 -7
v 7 19 -9
v 8 3 9
v 8 3 8
v 8 3 -8
v 8 3 -9
v 8 18 9
v 8 18 8
v 8 18 -8
v 8 18 -9
v -8 3 9
v -8 3 8
v -8 3 -8
v -8 3 -9
v -8 18 9
v -8 18 8
v -8 18 -8
v -8 18 -9
v -7 2 9
v -7 2 7
v -7 2 -7
v -7 2 -9
v -7 3 9
v -7 3 7
v -7 3 -7
v -7 3 -9
v -7 18 9
v -7 18 7
v -7 18 -7
v -7 18 -9
v -7 19 9
v -7 19 7
v -7 19 -7
v -7 19 -9
v -6 1 9
v -6 1 6
v -6 1 -6
v -6 1 -9
v -6 2 9
v -6 2 6
v -6 2 -6
v -6 2 -9
v -6 19 9
v -6 19 6
v -6 19 -6
v -6 19 -9
v -6 20 9
v -6 20 6
v -6 20 -6
v -6 20 -9
v 9 0 9
v 9 0 -9
v 9 1 9
v 9 1 6
v 9 1 -6
v 9 1 -9
v 9 2 7
v 9 2 6
v 9 2 -6
v 9 2 -7
v 9 3 8
v 9 3 7
v 9 3 -7
v 9 3 -8
v 9 18 8
v 9 18 7
v 9 18 -7
v 9 18 -8
v 9 19 7
v 9 19 6
v 9 19 -6
v 9 19 -7
v 9 20 9
v 9 20 6
v 9 20 -6
v 9 20 -9
v 9 21 9
v 9 21 -9
v -9 0 9
v -9 1 9
v -9 20 9
v -9 21 9
v -8 3 9
v -8 18 9
v -7 2 9
v -7 3 9
v -7 18 9
v -7 19 9
v -6 1 9
v -6 2 9
v -6 19 9
v -6 20 9
v 6 1 9
v 6 2 9
v 6 19 9
v 6 20 9
v 7 2 9
v 7 3 9
v 7 18 9
v 7 19 9
v 8 3 9
v 8 18 9
v 9 0 9
v 9 1 9
v 9 20 9
v 9 21 9
v -9 1 -6
v -9 2 -6
v -9 19 -6
v -9 20 -6
v -6 1 -6
v -6 2 -6
v -6 19 -6
v -6 20 -6
v 6 1 -6
v 6 2 -6
v 6 19 -6
v 6 20 -6
v 9 1 -6
v 9 2 -6
v 9 19 -6
v 9 20 -6
v -9 2 -7
v -9 3 -7
v -9 18 -7
v -9 19 -7
v -7 2 -7
v -7 3 -7
v -7 18 -7
v -7 19 -7
v 7 2 -7
v 7 3 -7
v 7 18 -7
v 7 19 -7
v 9 2 -7
v 9 3 -7
v 9 18 -7
v 9 19 -7
v -9 3 -8
v -9 18 -8
v -8 3 -8
v -8 18 -8
v 8 3 -8
v 8 18 -8
v 9 3 -8
v 9 18 -8
v -9 3 8
v -9 18 8
v -8 3 8
v -8 18 8
v 8 3 8
v 8 18 8
v 9 3 8
v 9 18 8
v -9 2 7
v -9 3 7
v -9 18 7
v -9 19 7
v -7 2 7
v -7 3 7
v -7 18 7
v -7 19 7
v 7 2 7
v 7 3 7
v 7 18 7
v 7 19 7
v 9 2 7
v 9 3 7
v 9 18 7
v 9 19 7
v -9 1 6
v -9 2 6
v -9 19 6
v -9 20 6
v -6 1 6
v -6 2 6
v -6 19 6
v -6 20 6
v 6 1 6
v 6 2 6
v 6 19 6
v 6 20 6
v 9 1 6
v 9 2 6
v 9 19 6
v 9 20 6
v -9 0 -9
v -9 1 -9
v -9 20 -9
v -9 21 -9
v -8 3 -9
v -8 18 -9
v -7 2 -9
v -7 3 -9
v -7 18 -9
v -7 19 -9
v -6 1 -9
v -6 2 -9
v -6 19 -9
v -6 20 -9
v 6 1 -9
v 6 2 -9
v 6 19 -9
v 6 20 -9
v 7 2 -9
v 7 3 -9
v 7 18 -9
v 7 19 -9
v 8 3 -9
v 8 18 -9
v 9 0 -9
v 9 1 -9
v 9 20 -9
v 9 21 -9
v -9 0 9
v 9 0 9
v -9 0 -9
v 9 0 -9
v -8 18 9
v -7 18 9
v 7 18 9
v 8 18 9
v -9 18 8
v -8 18 8
v 8 18 8
v 9 18 8
v -9 18 7
v -7 18 7
v 7 18 7
v 9 18 7
v -9 18 -7
v -7 18 -7
v 7 18 -7
v 9 18 -7
v -9 18 -8
v -8 18 -8
v 8 18 -8
v 9 18 -8
v -8 18 -9
v -7 18 -9
v 7 18 -9
v 8 18 -9
v -7 19 9
v -6 19 9
v 6 19 9
v 7 19 9
v -9 19 7
v -7 19 7
v 7 19 7
v 9 19 7
v -9 19 6
v -6 19 6
v 6 19 6
v 9 19 6
v -9 19 -6
v -6 19 -6
v 6 19 -6
v 9 19 -6
v -9 19 -7
v -7 19 -7
v 7 19 -7
v 9 19 -7
v -7 19 -9
v -6 19 -9
v 6 19 -9
v 7 19 -9
v -6 20 9
v 6 20 9
v -9 20 6
v -6 20 6
v 6 20 6
v 9 20 6
v -9 20 -6
v -6 20 -6
v 6 20 -6
v 9 20 -6
v -6 20 -9
v 6 20 -9
v -6 1 9
v 6 1 9
v -9 1 6
v -6 1 6
v 6 1 6
v 9 1 6
v -9 1 -6
v -6 1 -6
v 6 1 -6
v 9 1 -6
v -6 1 -9
v 6 1 -9
v -7 2 9
v -6 2 9
v 6 2 9
v 7 2 9
v -9 2 7
v -7 2 7
v 7 2 7
v 9 2 7
v -9 2 6
v -6 2 6
v 6 2 6
v 9 2 6
v -9 2 -6
v -6 2 -6
v 6 2 -6
v 9 2 -6
v -9 2 -7
v -7 2 -7
v 7 2 -7
v 9 2 -7
v -7 2 -9
v -6 2 -9
v 6 2 -9
v 7 2 -9
v -8 3 9
v -7 3 9
v 7 3 9
v 8 3 9
v -9 3 8
v -8 3 8
v 8 3 8
v 9 3 8
v -9 3 7
v -7 3 7
v 7 3 7
v 9 3 7
v -9 3 -7
v -7 3 -7
v 7 3 -7
v 9 3 -7
v -9 3 -8
v -8 3 -8
v 8 3 -8
v 9 3 -8
v -8 3 -9
v -7 3 -9
v 7 3 -9
v 8 3 -9
v -9 21 9
v 9 21 9
v -9 21 -9
v 9 21 -9

# faces
f 3/1/1 2/1/1 1/1/1
f 4/1/1 2/1/1 3/1/1
f 5/1/1 2/1/1 4/1/1
f 6/1/1 2/1/1 5/1/1
f 7/2/1 4/2/1 3/2/1
f 8/2/1 4/2/1 7/2/1
f 9/2/1 6/2/1 5/2/1
f 10/2/1 6/2/1 9/2/1
f 11/2/1 7/2/1 3/2/1
f 12/2/1 7/2/1 11/2/1
f 13/2/1 6/2/1 10/2/1
f 14/2/1 6/2/1 13/2/1
f 15/2/1 11/2/1 3/2/1
f 18/2/1 6/2/1 14/2/1
f 19/2/1 16/2/1 15/2/1
f 22/2/1 18/2/1 17/2/1
f 23/2/1 20/2/1 19/2/1
f 23/2/1 15/2/1 3/2/1
f 23/2/1 19/2/1 15/2/1
f 24/2/1 20/2/1 23/2/1
f 25/2/1 22/2/1 21/2/1
f 26/2/1 18/2/1 22/2/1
f 26/2/1 6/2/1 18/2/1
f 26/2/1 22/2/1 25/2/1
f 27/3/1 24/3/1 23/3/1
f 27/3/1 25/3/1 24/3/1
f 27/3/1 26/3/1 25/3/1
f 28/3/1 26/3/1 27/3/1
f 33/2/1 30/2/1 29/2/1
f 34/2/1 30/2/1 33/2/1
f 35/2/1 32/2/1 31/2/1
f 36/2/1 32/2/1 35/2/1
f 41/2/1 38/2/1 37/2/1
f 42/2/1 38/2/1 41/2/1
f 43/2/1 40/2/1 39/2/1
f 44/2/1 40/2/1 43/2/1
f 49/2/1 46/2/1 45/2/1
f 50/2/1 46/2/1 49/2/1
f 51/2/1 48/2/1 47/2/1
f 52/2/1 48/2/1 51/2/1
f 57/2/1 54/2/1 53/2/1
f 58/2/1 54/2/1 57/2/1
f 59/2/1 56/2/1 55/2/1
f 60/2/1 56/2/1 59/2/1
f 65/2/1 62/2/1 61/2/1
f 66/2/1 62/2/1 65/2/1
f 67/2/1 64/2/1 63/2/1
f 68/2/1 64/2/1 67/2/1
f 69/2/2 70/2/2 73/2/2
f 73/2/2 70/2/2 74/2/2
f 71/2/2 72/2/2 75/2/2
f 75/2/2 72/2/2 76/2/2
f 77/2/2 78/2/2 81/2/2
f 81/2/2 78/2/2 82/2/2
f 79/2/2 80/2/2 83/2/2
f 83/2/2 80/2/2 84/2/2
f 85/2/2 86/2/2 89/2/2
f 89/2/2 86/2/2 90/2/2
f 87/2/2 88/2/2 91/2/2
f 91/2/2 88/2/2 92/2/2
f 93/2/2 94/2/2 97/2/2
f 97/2/2 94/2/2 98/2/2
f 95/2/2 96/2/2 99/2/2
f 99/2/2 96/2/2 100/2/2
f 101/2/2 102/2/2 105/2/2
f 105/2/2 102/2/2 106/2/2
f 103/2/2 104/2/2 107/2/2
f 107/2/2 104/2/2 108/2/2
f 109/1/2 110/1/2 111/1/2
f 111/1/2 110/1/2 112/1/2
f 112/1/2 110/1/2 113/1/2
f 113/1/2 110/1/2 114/1/2
f 111/2/2 112/2/2 115/2/2
f 115/2/2 112/2/2 116/2/2
f 113/2/2 114/2/2 117/2/2
f 117/2/2 114/2/2 118/2/2
f 111/2/2 115/2/2 119/2/2
f 119/2/2 115/2/2 120/2/2
f 118/2/2 114/2/2 121/2/2
f 121/2/2 114/2/2 122/2/2
f 111/2/2 119/2/2 123/2/2
f 122/2/2 114/2/2 126/2/2
f 123/2/2 124/2/2 127/2/2
f 125/2/2 126/2/2 130/2/2
f 127/2/2 128/2/2 131/2/2
f 111/2/2 123/2/2 131/2/2
f 123/2/2 127/2/2 131/2/2
f 131/2/2 128/2/2 132/2/2
f 129/2/2 130/2/2 133/2/2
f 130/2/2 126/2/2 134/2/2
f 126/2/2 114/2/2 134/2/2
f 133/2/2 130/2/2 134/2/2
f 131/3/2 132/3/2 135/3/2
f 132/3/2 133/3/2 135/3/2
f 133/3/2 134/3/2 135/3/2
f 135/3/2 134/3/2 136/3/2
f 141/2/3 139/2/3 138/2/3
f 142/2/3 139/2/3 141/2/3
f 143/2/3 141/2/3 138/2/3
f 144/2/3 141/2/3 143/2/3
f 145/2/3 139/2/3 142/2/3
f 146/2/3 139/2/3 145/2/3
f 147/1/3 138/1/3 137/1/3
f 147/2/3 143/2/3 138/2/3
f 148/2/3 143/2/3 147/2/3
f 149/2/3 139/2/3 146/2/3
f 150/3/3 140/3/3 139/3/3
f 150/2/3 139/2/3 149/2/3
f 151/1/3 147/1/3 137/1/3
f 154/3/3 140/3/3 150/3/3
f 155/2/3 152/2/3 151/2/3
f 158/2/3 154/2/3 153/2/3
f 159/2/3 156/2/3 155/2/3
f 160/2/3 158/2/3 157/2/3
f 161/1/3 151/1/3 137/1/3
f 162/2/3 159/2/3 155/2/3
f 162/1/3 151/1/3 161/1/3
f 162/2/3 160/2/3 159/2/3
f 162/2/3 155/2/3 151/2/3
f 163/2/3 158/2/3 160/2/3
f 163/2/3 160/2/3 162/2/3
f 163/3/3 140/3/3 154/3/3
f 163/2/3 154/2/3 158/2/3
f 164/3/3 140/3/3 163/3/3
f 169/2/3 166/2/3 165/2/3
f 170/2/3 166/2/3 169/2/3
f 171/2/3 168/2/3 167/2/3
f 172/2/3 168/2/3 171/2/3
f 177/2/3 174/2/3 173/2/3
f 178/2/3 174/2/3 177/2/3
f 179/2/3 176/2/3 175/2/3
f 180/2/3 176/2/3 179/2/3
f 185/2/3 182/2/3 181/2/3
f 186/2/3 182/2/3 185/2/3
f 187/2/3 184/2/3 183/2/3
f 188/2/3 184/2/3 187/2/3
f 193/2/3 190/2/3 189/2/3
f 194/2/3 190/2/3 193/2/3
f 195/2/3 192/2/3 191/2/3
f 196/2/3 192/2/3 195/2/3
f 199/2/3 198/2/3 197/2/3
f 200/2/3 198/2/3 199/2/3
f 203/2/3 202/2/3 201/2/3
f 204/2/3 202/2/3 203/2/3
f 205/2/4 206/2/4 207/2/4
f 207/2/4 206/2/4 208/2/4
f 209/2/4 210/2/4 211/2/4
f 211/2/4 210/2/4 212/2/4
f 213/2/4 214/2/4 217/2/4
f 217/2/4 214/2/4 218/2/4
f 215/2/4 216/2/4 219/2/4
f 219/2/4 216/2/4 220/2/4
f 221/2/4 222/2/4 225/2/4
f 225/2/4 222/2/4 226/2/4
f 223/2/4 224/2/4 227/2/4
f 227/2/4 224/2/4 228/2/4
f 229/2/4 230/2/4 233/2/4
f 233/2/4 230/2/4 234/2/4
f 231/2/4 232/2/4 235/2/4
f 235/2/4 232/2/4 236/2/4
f 237/2/4 238/2/4 241/2/4
f 241/2/4 238/2/4 242/2/4
f 239/2/4 240/2/4 243/2/4
f 243/2/4 240/2/4 244/2/4
f 246/2/4 247/2/4 249/2/4
f 249/2/4 247/2/4 250/2/4
f 246/2/4 249/2/4 251/2/4
f 251/2/4 249/2/4 252/2/4
f 250/2/4 247/2/4 253/2/4
f 253/2/4 247/2/4 254/2/4
f 245/1/4 246/1/4 255/1/4
f 246/2/4 251/2/4 255/2/4
f 255/2/4 251/2/4 256/2/4
f 254/2/4 247/2/4 257/2/4
f 247/3/4 248/3/4 258/3/4
f 257/2/4 247/2/4 258/2/4
f 245/1/4 255/1/4 259/1/4
f 258/3/4 248/3/4 262/3/4
f 259/2/4 260/2/4 263/2/4
f 261/2/4 262/2/4 266/2/4
f 263/2/4 264/2/4 267/2/4
f 265/2/4 266/2/4 268/2/4
f 245/1/4 259/1/4 269/1/4
f 263/2/4 267/2/4 270/2/4
f 269/1/4 259/1/4 270/1/4
f 267/2/4 268/2/4 270/2/4
f 259/2/4 263/2/4 270/2/4
f 268/2/4 266/2/4 271/2/4
f 270/2/4 268/2/4 271/2/4
f 262/3/4 248/3/4 271/3/4
f 266/2/4 262/2/4 271/2/4
f 271/3/4 248/3/4 272/3/4
f 275/1/5 274/1/5 273/1/5
f 276/1/5 274/1/5 275/1/5
f 282/2/5 278/2/5 277/2/5
f 283/2/5 280/2/5 279/2/5
f 285/2/5 282/2/5 281/2/5
f 286/2/5 278/2/5 282/2/5
f 286/2/5 282/2/5 285/2/5
f 287/2/5 284/2/5 283/2/5
f 287/2/5 283/2/5 279/2/5
f 288/2/5 284/2/5 287/2/5
f 293/2/5 290/2/5 289/2/5
f 294/2/5 290/2/5 293/2/5
f 295/2/5 292/2/5 291/2/5
f 296/2/5 292/2/5 295/2/5
f 297/2/5 290/2/5 294/2/5
f 298/2/5 290/2/5 297/2/5
f 299/2/5 295/2/5 291/2/5
f 300/2/5 295/2/5 299/2/5
f 306/2/5 302/2/5 301/2/5
f 307/2/5 304/2/5 303/2/5
f 309/2/5 306/2/5 305/2/5
f 310/2/5 302/2/5 306/2/5
f 310/2/5 306/2/5 309/2/5
f 311/2/5 308/2/5 307/2/5
f 311/2/5 307/2/5 303/2/5
f 312/2/5 308/2/5 311/2/5
f 317/2/5 314/2/5 313/2/5
f 318/2/5 314/2/5 317/2/5
f 319/2/5 316/2/5 315/2/5
f 320/2/5 316/2/5 319/2/5
f 321/2/5 314/2/5 318/2/5
f 322/2/5 314/2/5 321/2/5
f 323/2/5 319/2/5 315/2/5
f 324/2/5 319/2/5 323/2/5
f 328/3/5 326/3/5 325/3/5
f 329/3/5 326/3/5 328/3/5
f 331/3/5 328/3/5 327/3/5
f 331/3/5 330/3/5 329/3/5
f 331/3/5 329/3/5 328/3/5
f 332/3/5 330/3/5 331/3/5
f 333/3/5 330/3/5 332/3/5
f 334/3/5 330/3/5 333/3/5
f 335/3/5 333/3/5 332/3/5
f 336/3/5 333/3/5 335/3/5
f 337/1/6 338/1/6 340/1/6
f 340/1/6 338/1/6 341/1/6
f 339/1/6 340/1/6 343/1/6
f 341/1/6 342/1/6 343/1/6
f 340/1/6 341/1/6 343/1/6
f 343/1/6 342/1/6 344/1/6
f 344/1/6 342/1/6 345/1/6
f 345/1/6 342/1/6 346/1/6
f 344/1/6 345/1/6 347/1/6
f 347/1/6 345/1/6 348/1/6
f 349/2/6 350/2/6 354/2/6
f 351/2/6 352/2/6 355/2/6
f 353/2/6 354/2/6 357/2/6
f 354/2/6 350/2/6 358/2/6
f 357/2/6 354/2/6 358/2/6
f 355/2/6 356/2/6 359/2/6
f 351/2/6 355/2/6 359/2/6
f 359/2/6 356/2/6 360/2/6
f 361/2/6 362/2/6 365/2/6
f 365/2/6 362/2/6 366/2/6
f 363/2/6 364/2/6 367/2/6
f 367/2/6 364/2/6 368/2/6
f 366/2/6 362/2/6 369/2/6
f 369/2/6 362/2/6 370/2/6
f 363/2/6 367/2/6 371/2/6
f 371/2/6 367/2/6 372/2/6
f 373/2/6 374/2/6 378/2/6
f 375/2/6 376/2/6 379/2/6
f 377/2/6 378/2/6 381/2/6
f 378/2/6 374/2/6 382/2/6
f 381/2/6 378/2/6 382/2/6
f 379/2/6 380/2/6 383/2/6
f 375/2/6 379/2/6 383/2/6
f 383/2/6 380/2/6 384/2/6
f 385/2/6 386/2/6 389/2/6
f 389/2/6 386/2/6 390/2/6
f 387/2/6 388/2/6 391/2/6
f 391/2/6 388/2/6 392/2/6
f 390/2/6 386/2/6 393/2/6
f 393/2/6 386/2/6 394/2/6
f 387/2/6 391/2/6 395/2/6
f 395/2/6 391/2/6 396/2/6
f 397/3/6 398/3/6 399/3/6
f 399/3/6 398/3/6 400/3/6
