# MagicaVoxel @ Ephtracy

# group
g corridor

# material
mtllib corridor.mtl
usemtl palette

# normals
vn -1 0 0
vn 1 0 0
vn 0 0 1
vn 0 0 -1
vn 0 -1 0
vn 0 1 0

# texcoords
vt 0.974609 0.5
vt 0.978516 0.5
vt 0.982422 0.5

# verts
v -10 0 13.5
v -10 0 -13.5
v -10 20 13.5
v -10 20 -13.5
v -9 20 13.5
v -9 20 -13.5
v -9 21 13.5
v -9 21 -13.5
v 6 1 13.5
v 6 1 10.5
v 6 1 -10.5
v 6 1 -13.5
v 6 2 13.5
v 6 2 10.5
v 6 2 -10.5
v 6 2 -13.5
v 6 19 13.5
v 6 19 10.5
v 6 19 -10.5
v 6 19 -13.5
v 6 20 13.5
v 6 20 10.5
v 6 20 -10.5
v 6 20 -13.5
v 7 2 13.5
v 7 2 11.5
v 7 2 -11.5
v 7 2 -13.5
v 7 3 13.5
v 7 3 11.5
v 7 3 -11.5
v 7 3 -13.5
v 7 18 13.5
v 7 18 11.5
v 7 18 -11.5
v 7 18 -13.5
v 7 19 13.5
v 7 19 11.5
v 7 19 -11.5
v 7 19 -13.5
v 8 3 13.5
v 8 3 12.5
v 8 3 -12.5
v 8 3 -13.5
v 8 18 13.5
v 8 18 12.5
v 8 18 -12.5
v 8 18 -13.5
v 9 1 10.5
v 9 1 -10.5
v 9 2 11.5
v 9 2 10.5
v 9 2 -10.5
v 9 2 -11.5
v 9 3 12.5
v 9 3 11.5
v 9 3 -11.5
v 9 3 -12.5
v 9 18 12.5
v 9 18 11.5
v 9 18 -11.5
v 9 18 -12.5
v 9 19 11.5
v 9 19 10.5
v 9 19 -10.5
v 9 19 -11.5
v 9 20 10.5
v 9 20 -10.5
v -9 1 10.5
v -9 1 -10.5
v -9 2 11.5
v -9 2 10.5
v -9 2 -10.5
v -9 2 -11.5
v -9 3 12.5
v -9 3 11.5
v -9 3 -11.5
v -9 3 -12.5
v -9 18 12.5
v -9 18 11.5
v -9 18 -11.5
v -9 18 -12.5
v -9 19 11.5
v -9 19 10.5
v -9 19 -10.5
v -9 19 -11.5
v -9 20 10.5
v -9 20 -10.5
v -8 3 13.5
v -8 3 12.5
v -8 3 -12.5
v -8 3 -13.5
v -8 18 13.5
v -8 18 12.5
v -8 18 -12.5
v -8 18 -13.5
v -7 2 13.5
v -7 2 11.5
v -7 2 -11.5
v -7 2 -13.5
v -7 3 13.5
v -7 3 11.5
v -7 3 -11.5
v -7 3 -13.5
v -7 18 13.5
v -7 18 11.5
v -7 18 -11.5
v -7 18 -13.5
v -7 19 13.5
v -7 19 11.5
v -7 19 -11.5
v -7 19 -13.5
v -6 1 13.5
v -6 1 10.5
v -6 1 -10.5
v -6 1 -13.5
v -6 2 13.5
v -6 2 10.5
v -6 2 -10.5
v -6 2 -13.5
v -6 19 13.5
v -6 19 10.5
v -6 19 -10.5
v -6 19 -13.5
v -6 20 13.5
v -6 20 10.5
v -6 20 -10.5
v -6 20 -13.5
v 9 20 13.5
v 9 20 -13.5
v 9 21 13.5
v 9 21 -13.5
v 10 0 13.5
v 10 0 -13.5
v 10 20 13.5
v 10 20 -13.5
v -10 0 13.5
v -10 20 13.5
v -9 0 13.5
v -9 1 13.5
v -9 20 13.5
v -9 21 13.5
v -8 3 13.5
v -8 18 13.5
v -7 2 13.5
v -7 3 13.5
v -7 18 13.5
v -7 19 13.5
v -6 1 13.5
v -6 2 13.5
v -6 19 13.5
v -6 20 13.5
v 6 1 13.5
v 6 2 13.5
v 6 19 13.5
v 6 20 13.5
v 7 2 13.5
v 7 3 13.5
v 7 18 13.5
v 7 19 13.5
v 8 3 13.5
v 8 18 13.5
v 9 0 13.5
v 9 1 13.5
v 9 20 13.5
v 9 21 13.5
v 10 0 13.5
v 10 20 13.5
v -9 1 -10.5
v -9 2 -10.5
v -9 19 -10.5
v -9 20 -10.5
v -6 1 -10.5
v -6 2 -10.5
v -6 19 -10.5
v -6 20 -10.5
v 6 1 -10.5
v 6 2 -10.5
v 6 19 -10.5
v 6 20 -10.5
v 9 1 -10.5
v 9 2 -10.5
v 9 19 -10.5
v 9 20 -10.5
v -9 2 -11.5
v -9 3 -11.5
v -9 18 -11.5
v -9 19 -11.5
v -7 2 -11.5
v -7 3 -11.5
v -7 18 -11.5
v -7 19 -11.5
v 7 2 -11.5
v 7 3 -11.5
v 7 18 -11.5
v 7 19 -11.5
v 9 2 -11.5
v 9 3 -11.5
v 9 18 -11.5
v 9 19 -11.5
v -9 3 -12.5
v -9 18 -12.5
v -8 3 -12.5
v -8 18 -12.5
v 8 3 -12.5
v 8 18 -12.5
v 9 3 -12.5
v 9 18 -12.5
v -9 3 12.5
v -9 18 12.5
v -8 3 12.5
v -8 18 12.5
v 8 3 12.5
v 8 18 12.5
v 9 3 12.5
v 9 18 12.5
v -9 2 11.5
v -9 3 11.5
v -9 18 11.5
v -9 19 11.5
v -7 2 11.5
v -7 3 11.5
v -7 18 11.5
v -7 19 11.5
v 7 2 11.5
v 7 3 11.5
v 7 18 11.5
v 7 19 11.5
v 9 2 11.5
v 9 3 11.5
v 9 18 11.5
v 9 19 11.5
v -9 1 10.5
v -9 2 10.5
v -9 19 10.5
v -9 20 10.5
v -6 1 10.5
v -6 2 10.5
v -6 19 10.5
v -6 20 10.5
v 6 1 10.5
v 6 2 10.5
v 6 19 10.5
v 6 20 10.5
v 9 1 10.5
v 9 2 10.5
v 9 19 10.5
v 9 20 10.5
v -10 0 -13.5
v -10 20 -13.5
v -9 0 -13.5
v -9 1 -13.5
v -9 20 -13.5
v -9 21 -13.5
v -8 3 -13.5
v -8 18 -13.5
v -7 2 -13.5
v -7 3 -13.5
v -7 18 -13.5
v -7 19 -13.5
v -6 1 -13.5
v -6 2 -13.5
v -6 19 -13.5
v -6 20 -13.5
v 6 1 -13.5
v 6 2 -13.5
v 6 19 -13.5
v 6 20 -13.5
v 7 2 -13.5
v 7 3 -13.5
v 7 18 -13.5
v 7 19 -13.5
v 8 3 -13.5
v 8 18 -13.5
v 9 0 -13.5
v 9 1 -13.5
v 9 20 -13.5
v 9 21 -13.5
v 10 0 -13.5
v 10 20 -13.5
v -10 0 13.5
v -9 0 13.5
v 9 0 13.5
v 10 0 13.5
v -10 0 -13.5
v -9 0 -13.5
v 9 0 -13.5
v 10 0 -13.5
v -8 18 13.5
v -7 18 13.5
v 7 18 13.5
v 8 18 13.5
v -9 18 12.5
v -8 18 12.5
v 8 18 12.5
v 9 18 12.5
v -9 18 11.5
v -7 18 11.5
v 7 18 11.5
v 9 18 11.5
v -9 18 -11.5
v -7 18 -11.5
v 7 18 -11.5
v 9 18 -11.5
v -9 18 -12.5
v -8 18 -12.5
v 8 18 -12.5
v 9 18 -12.5
v -8 18 -13.5
v -7 18 -13.5
v 7 18 -13.5
v 8 18 -13.5
v -7 19 13.5
v -6 19 13.5
v 6 19 13.5
v 7 19 13.5
v -9 19 11.5
v -7 19 11.5
v 7 19 11.5
v 9 19 11.5
v -9 19 10.5
v -6 19 10.5
v 6 19 10.5
v 9 19 10.5
v -9 19 -10.5
v -6 19 -10.5
v 6 19 -10.5
v 9 19 -10.5
v -9 19 -11.5
v -7 19 -11.5
v 7 19 -11.5
v 9 19 -11.5
v -7 19 -13.5
v -6 19 -13.5
v 6 19 -13.5
v 7 19 -13.5
v -6 20 13.5
v 6 20 13.5
v -9 20 10.5
v -6 20 10.5
v 6 20 10.5
v 9 20 10.5
v -9 20 -10.5
v -6 20 -10.5
v 6 20 -10.5
v 9 20 -10.5
v -6 20 -13.5
v 6 20 -13.5
v -6 1 13.5
v 6 1 13.5
v -9 1 10.5
v -6 1 10.5
v 6 1 10.5
v 9 1 10.5
v -9 1 -10.5
v -6 1 -10.5
v 6 1 -10.5
v 9 1 -10.5
v -6 1 -13.5
v 6 1 -13.5
v -7 2 13.5
v -6 2 13.5
v 6 2 13.5
v 7 2 13.5
v -9 2 11.5
v -7 2 11.5
v 7 2 11.5
v 9 2 11.5
v -9 2 10.5
v -6 2 10.5
v 6 2 10.5
v 9 2 10.5
v -9 2 -10.5
v -6 2 -10.5
v 6 2 -10.5
v 9 2 -10.5
v -9 2 -11.5
v -7 2 -11.5
v 7 2 -11.5
v 9 2 -11.5
v -7 2 -13.5
v -6 2 -13.5
v 6 2 -13.5
v 7 2 -13.5
v -8 3 13.5
v -7 3 13.5
v 7 3 13.5
v 8 3 13.5
v -9 3 12.5
v -8 3 12.5
v 8 3 12.5
v 9 3 12.5
v -9 3 11.5
v -7 3 11.5
v 7 3 11.5
v 9 3 11.5
v -9 3 -11.5
v -7 3 -11.5
v 7 3 -11.5
v 9 3 -11.5
v -9 3 -12.5
v -8 3 -12.5
v 8 3 -12.5
v 9 3 -12.5
v -8 3 -13.5
v -7 3 -13.5
v 7 3 -13.5
v 8 3 -13.5
v -10 20 13.5
v -9 20 13.5
v 9 20 13.5
v 10 20 13.5
v -10 20 -13.5
v -9 20 -13.5
v 9 20 -13.5
v 10 20 -13.5
v -9 21 13.5
v 9 21 13.5
v -9 21 -13.5
v 9 21 -13.5

# faces
f 3/3/1 2/3/1 1/3/1
f 4/3/1 2/3/1 3/3/1
f 7/3/1 6/3/1 5/3/1
f 8/3/1 6/3/1 7/3/1
f 13/2/1 10/2/1 9/2/1
f 14/2/1 10/2/1 13/2/1
f 15/2/1 12/2/1 11/2/1
f 16/2/1 12/2/1 15/2/1
f 21/2/1 18/2/1 17/2/1
f 22/2/1 18/2/1 21/2/1
f 23/2/1 20/2/1 19/2/1
f 24/2/1 20/2/1 23/2/1
f 29/2/1 26/2/1 25/2/1
f 30/2/1 26/2/1 29/2/1
f 31/2/1 28/2/1 27/2/1
f 32/2/1 28/2/1 31/2/1
f 37/2/1 34/2/1 33/2/1
f 38/2/1 34/2/1 37/2/1
f 39/2/1 36/2/1 35/2/1
f 40/2/1 36/2/1 39/2/1
f 45/2/1 42/2/1 41/2/1
f 46/2/1 42/2/1 45/2/1
f 47/2/1 44/2/1 43/2/1
f 48/2/1 44/2/1 47/2/1
f 52/3/1 50/3/1 49/3/1
f 53/3/1 50/3/1 52/3/1
f 56/3/1 52/3/1 51/3/1
f 56/3/1 54/3/1 53/3/1
f 56/3/1 53/3/1 52/3/1
f 57/3/1 54/3/1 56/3/1
f 59/3/1 56/3/1 55/3/1
f 59/3/1 58/3/1 57/3/1
f 59/3/1 57/3/1 56/3/1
f 60/3/1 58/3/1 59/3/1
f 61/3/1 58/3/1 60/3/1
f 62/3/1 58/3/1 61/3/1
f 63/3/1 61/3/1 60/3/1
f 64/3/1 61/3/1 63/3/1
f 65/3/1 61/3/1 64/3/1
f 66/3/1 61/3/1 65/3/1
f 67/3/1 65/3/1 64/3/1
f 68/3/1 65/3/1 67/3/1
f 69/3/2 70/3/2 72/3/2
f 72/3/2 70/3/2 73/3/2
f 71/3/2 72/3/2 76/3/2
f 73/3/2 74/3/2 76/3/2
f 72/3/2 73/3/2 76/3/2
f 76/3/2 74/3/2 77/3/2
f 75/3/2 76/3/2 79/3/2
f 77/3/2 78/3/2 79/3/2
f 76/3/2 77/3/2 79/3/2
f 79/3/2 78/3/2 80/3/2
f 80/3/2 78/3/2 81/3/2
f 81/3/2 78/3/2 82/3/2
f 80/3/2 81/3/2 83/3/2
f 83/3/2 81/3/2 84/3/2
f 84/3/2 81/3/2 85/3/2
f 85/3/2 81/3/2 86/3/2
f 84/3/2 85/3/2 87/3/2
f 87/3/2 85/3/2 88/3/2
f 89/2/2 90/2/2 93/2/2
f 93/2/2 90/2/2 94/2/2
f 91/2/2 92/2/2 95/2/2
f 95/2/2 92/2/2 96/2/2
f 97/2/2 98/2/2 101/2/2
f 101/2/2 98/2/2 102/2/2
f 99/2/2 100/2/2 103/2/2
f 103/2/2 100/2/2 104/2/2
f 105/2/2 106/2/2 109/2/2
f 109/2/2 106/2/2 110/2/2
f 107/2/2 108/2/2 111/2/2
f 111/2/2 108/2/2 112/2/2
f 113/2/2 114/2/2 117/2/2
f 117/2/2 114/2/2 118/2/2
f 115/2/2 116/2/2 119/2/2
f 119/2/2 116/2/2 120/2/2
f 121/2/2 122/2/2 125/2/2
f 125/2/2 122/2/2 126/2/2
f 123/2/2 124/2/2 127/2/2
f 127/2/2 124/2/2 128/2/2
f 129/3/2 130/3/2 131/3/2
f 131/3/2 130/3/2 132/3/2
f 133/3/2 134/3/2 135/3/2
f 135/3/2 134/3/2 136/3/2
f 139/3/3 138/3/3 137/3/3
f 140/3/3 138/3/3 139/3/3
f 141/3/3 138/3/3 140/3/3
f 143/2/3 141/2/3 140/2/3
f 144/2/3 141/2/3 143/2/3
f 145/2/3 143/2/3 140/2/3
f 146/2/3 143/2/3 145/2/3
f 147/2/3 141/2/3 144/2/3
f 148/2/3 141/2/3 147/2/3
f 149/1/3 140/1/3 139/1/3
f 149/2/3 145/2/3 140/2/3
f 150/2/3 145/2/3 149/2/3
f 151/2/3 141/2/3 148/2/3
f 152/3/3 142/3/3 141/3/3
f 152/2/3 141/2/3 151/2/3
f 153/1/3 149/1/3 139/1/3
f 156/3/3 142/3/3 152/3/3
f 157/2/3 154/2/3 153/2/3
f 160/2/3 156/2/3 155/2/3
f 161/2/3 158/2/3 157/2/3
f 162/2/3 160/2/3 159/2/3
f 163/1/3 153/1/3 139/1/3
f 164/2/3 161/2/3 157/2/3
f 164/1/3 153/1/3 163/1/3
f 164/2/3 162/2/3 161/2/3
f 164/2/3 157/2/3 153/2/3
f 165/2/3 160/2/3 162/2/3
f 165/2/3 162/2/3 164/2/3
f 165/3/3 142/3/3 156/3/3
f 165/2/3 156/2/3 160/2/3
f 166/3/3 142/3/3 165/3/3
f 167/3/3 164/3/3 163/3/3
f 167/3/3 165/3/3 164/3/3
f 168/3/3 165/3/3 167/3/3
f 173/2/3 170/2/3 169/2/3
f 174/2/3 170/2/3 173/2/3
f 175/2/3 172/2/3 171/2/3
f 176/2/3 172/2/3 175/2/3
f 181/2/3 178/2/3 177/2/3
f 182/2/3 178/2/3 181/2/3
f 183/2/3 180/2/3 179/2/3
f 184/2/3 180/2/3 183/2/3
f 189/2/3 186/2/3 185/2/3
f 190/2/3 186/2/3 189/2/3
f 191/2/3 188/2/3 187/2/3
f 192/2/3 188/2/3 191/2/3
f 197/2/3 194/2/3 193/2/3
f 198/2/3 194/2/3 197/2/3
f 199/2/3 196/2/3 195/2/3
f 200/2/3 196/2/3 199/2/3
f 203/2/3 202/2/3 201/2/3
f 204/2/3 202/2/3 203/2/3
f 207/2/3 206/2/3 205/2/3
f 208/2/3 206/2/3 207/2/3
f 209/2/4 210/2/4 211/2/4
f 211/2/4 210/2/4 212/2/4
f 213/2/4 214/2/4 215/2/4
f 215/2/4 214/2/4 216/2/4
f 217/2/4 218/2/4 221/2/4
f 221/2/4 218/2/4 222/2/4
f 219/2/4 220/2/4 223/2/4
f 223/2/4 220/2/4 224/2/4
f 225/2/4 226/2/4 229/2/4
f 229/2/4 226/2/4 230/2/4
f 227/2/4 228/2/4 231/2/4
f 231/2/4 228/2/4 232/2/4
f 233/2/4 234/2/4 237/2/4
f 237/2/4 234/2/4 238/2/4
f 235/2/4 236/2/4 239/2/4
f 239/2/4 236/2/4 240/2/4
f 241/2/4 242/2/4 245/2/4
f 245/2/4 242/2/4 246/2/4
f 243/2/4 244/2/4 247/2/4
f 247/2/4 244/2/4 248/2/4
f 249/3/4 250/3/4 251/3/4
f 251/3/4 250/3/4 252/3/4
f 252/3/4 250/3/4 253/3/4
f 252/2/4 253/2/4 255/2/4
f 255/2/4 253/2/4 256/2/4
f 252/2/4 255/2/4 257/2/4
f 257/2/4 255/2/4 258/2/4
f 256/2/4 253/2/4 259/2/4
f 259/2/4 253/2/4 260/2/4
f 251/1/4 252/1/4 261/1/4
f 252/2/4 257/2/4 261/2/4
f 261/2/4 257/2/4 262/2/4
f 260/2/4 253/2/4 263/2/4
f 253/3/4 254/3/4 264/3/4
f 263/2/4 253/2/4 264/2/4
f 251/1/4 261/1/4 265/1/4
f 264/3/4 254/3/4 268/3/4
f 265/2/4 266/2/4 269/2/4
f 267/2/4 268/2/4 272/2/4
f 269/2/4 270/2/4 273/2/4
f 271/2/4 272/2/4 274/2/4
f 251/1/4 265/1/4 275/1/4
f 269/2/4 273/2/4 276/2/4
f 275/1/4 265/1/4 276/1/4
f 273/2/4 274/2/4 276/2/4
f 265/2/4 269/2/4 276/2/4
f 274/2/4 272/2/4 277/2/4
f 276/2/4 274/2/4 277/2/4
f 268/3/4 254/3/4 277/3/4
f 272/2/4 268/2/4 277/2/4
f 277/3/4 254/3/4 278/3/4
f 275/3/4 276/3/4 279/3/4
f 276/3/4 277/3/4 279/3/4
f 279/3/4 277/3/4 280/3/4
f 285/3/5 282/3/5 281/3/5
f 286/1/5 283/1/5 282/1/5
f 286/3/5 282/3/5 285/3/5
f 287/3/5 284/3/5 283/3/5
f 287/1/5 283/1/5 286/1/5
f 288/3/5 284/3/5 287/3/5
f 294/2/5 290/2/5 289/2/5
f 295/2/5 292/2/5 291/2/5
f 297/2/5 294/2/5 293/2/5
f 298/2/5 290/2/5 294/2/5
f 298/2/5 294/2/5 297/2/5
f 299/2/5 296/2/5 295/2/5
f 299/2/5 295/2/5 291/2/5
f 300/2/5 296/2/5 299/2/5
f 305/2/5 302/2/5 301/2/5
f 306/2/5 302/2/5 305/2/5
f 307/2/5 304/2/5 303/2/5
f 308/2/5 304/2/5 307/2/5
f 309/2/5 302/2/5 306/2/5
f 310/2/5 302/2/5 309/2/5
f 311/2/5 307/2/5 303/2/5
f 312/2/5 307/2/5 311/2/5
f 318/2/5 314/2/5 313/2/5
f 319/2/5 316/2/5 315/2/5
f 321/2/5 318/2/5 317/2/5
f 322/2/5 314/2/5 318/2/5
f 322/2/5 318/2/5 321/2/5
f 323/2/5 320/2/5 319/2/5
f 323/2/5 319/2/5 315/2/5
f 324/2/5 320/2/5 323/2/5
f 329/2/5 326/2/5 325/2/5
f 330/2/5 326/2/5 329/2/5
f 331/2/5 328/2/5 327/2/5
f 332/2/5 328/2/5 331/2/5
f 333/2/5 326/2/5 330/2/5
f 334/2/5 326/2/5 333/2/5
f 335/2/5 331/2/5 327/2/5
f 336/2/5 331/2/5 335/2/5
f 340/3/5 338/3/5 337/3/5
f 341/3/5 338/3/5 340/3/5
f 343/3/5 340/3/5 339/3/5
f 343/3/5 342/3/5 341/3/5
f 343/3/5 341/3/5 340/3/5
f 344/3/5 342/3/5 343/3/5
f 345/3/5 342/3/5 344/3/5
f 346/3/5 342/3/5 345/3/5
f 347/3/5 345/3/5 344/3/5
f 348/3/5 345/3/5 347/3/5
f 349/1/6 350/1/6 352/1/6
f 352/1/6 350/1/6 353/1/6
f 351/1/6 352/1/6 355/1/6
f 353/1/6 354/1/6 355/1/6
f 352/1/6 353/1/6 355/1/6
f 355/1/6 354/1/6 356/1/6
f 356/1/6 354/1/6 357/1/6
f 357/1/6 354/1/6 358/1/6
f 356/1/6 357/1/6 359/1/6
f 359/1/6 357/1/6 360/1/6
f 361/2/6 362/2/6 366/2/6
f 363/2/6 364/2/6 367/2/6
f 365/2/6 366/2/6 369/2/6
f 366/2/6 362/2/6 370/2/6
f 369/2/6 366/2/6 370/2/6
f 367/2/6 368/2/6 371/2/6
f 363/2/6 367/2/6 371/2/6
f 371/2/6 368/2/6 372/2/6
f 373/2/6 374/2/6 377/2/6
f 377/2/6 374/2/6 378/2/6
f 375/2/6 376/2/6 379/2/6
f 379/2/6 376/2/6 380/2/6
f 378/2/6 374/2/6 381/2/6
f 381/2/6 374/2/6 382/2/6
f 375/2/6 379/2/6 383/2/6
f 383/2/6 379/2/6 384/2/6
f 385/2/6 386/2/6 390/2/6
f 387/2/6 388/2/6 391/2/6
f 389/2/6 390/2/6 393/2/6
f 390/2/6 386/2/6 394/2/6
f 393/2/6 390/2/6 394/2/6
f 391/2/6 392/2/6 395/2/6
f 387/2/6 391/2/6 395/2/6
f 395/2/6 392/2/6 396/2/6
f 397/2/6 398/2/6 401/2/6
f 401/2/6 398/2/6 402/2/6
f 399/2/6 400/2/6 403/2/6
f 403/2/6 400/2/6 404/2/6
f 402/2/6 398/2/6 405/2/6
f 405/2/6 398/2/6 406/2/6
f 399/2/6 403/2/6 407/2/6
f 407/2/6 403/2/6 408/2/6
f 409/3/6 410/3/6 413/3/6
f 413/3/6 410/3/6 414/3/6
f 411/3/6 412/3/6 415/3/6
f 415/3/6 412/3/6 416/3/6
f 417/3/6 418/3/6 419/3/6
f 419/3/6 418/3/6 420/3/6
