# MagicaVoxel @ Ephtracy

# group
g Candle A

# material
mtllib Candle A.mtl
usemtl palette

# normals
vn -1 0 0
vn 1 0 0
vn 0 0 1
vn 0 0 -1
vn 0 -1 0
vn 0 1 0

# texcoords
vt 0.369141 0.5
vt 0.958984 0.5
vt 0.970703 0.5

# verts
v -1.5 0 1.5
v -1.5 0 -1.5
v -1.5 1 1.5
v -1.5 1 -1.5
v -1.5 2 0.5
v -1.5 2 -0.5
v -1.5 3 0.5
v -1.5 3 -0.5
v -0.5 1 0.5
v -0.5 1 -0.5
v -0.5 2 1.5
v -0.5 2 0.5
v -0.5 2 -0.5
v -0.5 2 -1.5
v -0.5 3 1.5
v -0.5 3 0.5
v -0.5 3 -0.5
v -0.5 3 -1.5
v -0.5 9 0.5
v -0.5 9 -0.5
v 0.5 1 0.5
v 0.5 1 -0.5
v 0.5 2 1.5
v 0.5 2 0.5
v 0.5 2 -0.5
v 0.5 2 -1.5
v 0.5 3 1.5
v 0.5 3 0.5
v 0.5 3 -0.5
v 0.5 3 -1.5
v 0.5 9 0.5
v 0.5 9 -0.5
v 1.5 0 1.5
v 1.5 0 -1.5
v 1.5 1 1.5
v 1.5 1 -1.5
v 1.5 2 0.5
v 1.5 2 -0.5
v 1.5 3 0.5
v 1.5 3 -0.5
v -1.5 0 1.5
v -1.5 1 1.5
v -0.5 2 1.5
v -0.5 3 1.5
v 0.5 2 1.5
v 0.5 3 1.5
v 1.5 0 1.5
v 1.5 1 1.5
v -1.5 2 0.5
v -1.5 3 0.5
v -0.5 1 0.5
v -0.5 2 0.5
v -0.5 3 0.5
v -0.5 9 0.5
v 0.5 1 0.5
v 0.5 2 0.5
v 0.5 3 0.5
v 0.5 9 0.5
v 1.5 2 0.5
v 1.5 3 0.5
v -1.5 2 -0.5
v -1.5 3 -0.5
v -0.5 1 -0.5
v -0.5 2 -0.5
v -0.5 3 -0.5
v -0.5 9 -0.5
v 0.5 1 -0.5
v 0.5 2 -0.5
v 0.5 3 -0.5
v 0.5 9 -0.5
v 1.5 2 -0.5
v 1.5 3 -0.5
v -1.5 0 -1.5
v -1.5 1 -1.5
v -0.5 2 -1.5
v -0.5 3 -1.5
v 0.5 2 -1.5
v 0.5 3 -1.5
v 1.5 0 -1.5
v 1.5 1 -1.5
v -1.5 0 1.5
v 1.5 0 1.5
v -1.5 0 -1.5
v 1.5 0 -1.5
v -0.5 2 1.5
v 0.5 2 1.5
v -1.5 2 0.5
v -0.5 2 0.5
v 0.5 2 0.5
v 1.5 2 0.5
v -1.5 2 -0.5
v -0.5 2 -0.5
v 0.5 2 -0.5
v 1.5 2 -0.5
v -0.5 2 -1.5
v 0.5 2 -1.5
v -1.5 1 1.5
v 1.5 1 1.5
v -0.5 1 0.5
v 0.5 1 0.5
v -0.5 1 -0.5
v 0.5 1 -0.5
v -1.5 1 -1.5
v 1.5 1 -1.5
v -0.5 3 1.5
v 0.5 3 1.5
v -1.5 3 0.5
v -0.5 3 0.5
v 0.5 3 0.5
v 1.5 3 0.5
v -1.5 3 -0.5
v -0.5 3 -0.5
v 0.5 3 -0.5
v 1.5 3 -0.5
v -0.5 3 -1.5
v 0.5 3 -1.5
v -0.5 9 0.5
v 0.5 9 0.5
v -0.5 9 -0.5
v 0.5 9 -0.5

# faces
f 3/1/1 2/1/1 1/1/1
f 4/1/1 2/1/1 3/1/1
f 7/1/1 6/1/1 5/1/1
f 8/1/1 6/1/1 7/1/1
f 12/3/1 10/3/1 9/3/1
f 13/3/1 10/3/1 12/3/1
f 15/1/1 12/1/1 11/1/1
f 16/1/1 12/1/1 15/1/1
f 17/1/1 14/1/1 13/1/1
f 18/1/1 14/1/1 17/1/1
f 19/2/1 17/2/1 16/2/1
f 20/2/1 17/2/1 19/2/1
f 21/3/2 22/3/2 24/3/2
f 24/3/2 22/3/2 25/3/2
f 23/1/2 24/1/2 27/1/2
f 27/1/2 24/1/2 28/1/2
f 25/1/2 26/1/2 29/1/2
f 29/1/2 26/1/2 30/1/2
f 28/2/2 29/2/2 31/2/2
f 31/2/2 29/2/2 32/2/2
f 33/1/2 34/1/2 35/1/2
f 35/1/2 34/1/2 36/1/2
f 37/1/2 38/1/2 39/1/2
f 39/1/2 38/1/2 40/1/2
f 45/1/3 44/1/3 43/1/3
f 46/1/3 44/1/3 45/1/3
f 47/1/3 42/1/3 41/1/3
f 48/1/3 42/1/3 47/1/3
f 52/1/3 50/1/3 49/1/3
f 53/1/3 50/1/3 52/1/3
f 55/3/3 52/3/3 51/3/3
f 56/3/3 52/3/3 55/3/3
f 57/2/3 54/2/3 53/2/3
f 58/2/3 54/2/3 57/2/3
f 59/1/3 57/1/3 56/1/3
f 60/1/3 57/1/3 59/1/3
f 61/1/4 62/1/4 64/1/4
f 64/1/4 62/1/4 65/1/4
f 63/3/4 64/3/4 67/3/4
f 67/3/4 64/3/4 68/3/4
f 65/2/4 66/2/4 69/2/4
f 69/2/4 66/2/4 70/2/4
f 68/1/4 69/1/4 71/1/4
f 71/1/4 69/1/4 72/1/4
f 75/1/4 76/1/4 77/1/4
f 77/1/4 76/1/4 78/1/4
f 73/1/4 74/1/4 79/1/4
f 79/1/4 74/1/4 80/1/4
f 83/1/5 82/1/5 81/1/5
f 84/1/5 82/1/5 83/1/5
f 88/1/5 86/1/5 85/1/5
f 89/1/5 86/1/5 88/1/5
f 91/1/5 88/1/5 87/1/5
f 92/1/5 88/1/5 91/1/5
f 93/1/5 90/1/5 89/1/5
f 94/1/5 90/1/5 93/1/5
f 95/1/5 93/1/5 92/1/5
f 96/1/5 93/1/5 95/1/5
f 97/1/6 98/1/6 99/1/6
f 99/1/6 98/1/6 100/1/6
f 97/1/6 99/1/6 101/1/6
f 100/1/6 98/1/6 102/1/6
f 97/1/6 101/1/6 103/1/6
f 101/1/6 102/1/6 103/1/6
f 102/1/6 98/1/6 104/1/6
f 103/1/6 102/1/6 104/1/6
f 105/1/6 106/1/6 108/1/6
f 108/1/6 106/1/6 109/1/6
f 107/1/6 108/1/6 111/1/6
f 111/1/6 108/1/6 112/1/6
f 109/1/6 110/1/6 113/1/6
f 113/1/6 110/1/6 114/1/6
f 112/1/6 113/1/6 115/1/6
f 115/1/6 113/1/6 116/1/6
f 117/2/6 118/2/6 119/2/6
f 119/2/6 118/2/6 120/2/6
