# MagicaVoxel @ Ephtracy

# group
g Chest C

# material
mtllib Chest C.mtl
usemtl palette

# normals
vn -1 0 0
vn 1 0 0
vn 0 0 1
vn 0 0 -1
vn 0 -1 0
vn 0 1 0

# texcoords
vt 0.0917969 0.5
vt 0.205078 0.5

# verts
v -9 1 10
v -9 1 8
v -9 1 -8
v -9 1 -10
v -9 2 10
v -9 2 8
v -9 2 -8
v -9 2 -10
v -8 1 12
v -8 1 10
v -8 1 8
v -8 1 -8
v -8 1 -10
v -8 1 -12
v -8 2 12
v -8 2 10
v -8 2 8
v -8 2 -8
v -8 2 -10
v -8 2 -12
v -7 2 11
v -7 2 -11
v -7 3 11
v -7 3 -11
v -6 3 10
v -6 3 -10
v -6 4 10
v -6 4 -10
v -5 4 9
v -5 4 -9
v -5 5 9
v -5 5 -9
v -4 5 8
v -4 5 -8
v -4 6 8
v -4 6 -8
v 4 4 8
v 4 4 -8
v 4 5 8
v 4 5 -8
v 5 3 9
v 5 3 -9
v 5 4 9
v 5 4 -9
v 6 2 10
v 6 2 -10
v 6 3 10
v 6 3 -10
v 7 1 11
v 7 1 -11
v 7 2 11
v 7 2 -11
v 8 0 1
v 8 0 -1
v 8 1 1
v 8 1 -1
v -7 1 11
v -7 1 -11
v -7 2 11
v -7 2 -11
v -6 2 10
v -6 2 -10
v -6 3 10
v -6 3 -10
v -5 3 9
v -5 3 -9
v -5 4 9
v -5 4 -9
v -4 4 8
v -4 4 -8
v -4 5 8
v -4 5 -8
v 4 5 8
v 4 5 -8
v 4 6 8
v 4 6 -8
v 5 4 9
v 5 4 -9
v 5 5 9
v 5 5 -9
v 6 3 10
v 6 3 -10
v 6 4 10
v 6 4 -10
v 7 2 11
v 7 2 -11
v 7 3 11
v 7 3 -11
v 8 1 12
v 8 1 1
v 8 1 -1
v 8 1 -12
v 8 2 12
v 8 2 1
v 8 2 -1
v 8 2 -12
v 9 0 1
v 9 0 -1
v 9 2 1
v 9 2 -1
v -8 1 12
v -8 2 12
v 8 1 12
v 8 2 12
v -7 2 11
v -7 3 11
v 7 2 11
v 7 3 11
v -9 1 10
v -9 2 10
v -8 1 10
v -8 2 10
v -6 3 10
v -6 4 10
v 6 3 10
v 6 4 10
v -5 4 9
v -5 5 9
v 5 4 9
v 5 5 9
v -4 5 8
v -4 6 8
v 4 5 8
v 4 6 8
v 8 0 1
v 8 1 1
v 8 2 1
v 9 0 1
v 9 2 1
v -9 1 -8
v -9 2 -8
v -8 1 -8
v -8 2 -8
v -4 4 -8
v -4 5 -8
v 4 4 -8
v 4 5 -8
v -5 3 -9
v -5 4 -9
v 5 3 -9
v 5 4 -9
v -6 2 -10
v -6 3 -10
v 6 2 -10
v 6 3 -10
v -7 1 -11
v -7 2 -11
v 7 1 -11
v 7 2 -11
v -7 1 11
v -7 2 11
v 7 1 11
v 7 2 11
v -6 2 10
v -6 3 10
v 6 2 10
v 6 3 10
v -5 3 9
v -5 4 9
v 5 3 9
v 5 4 9
v -9 1 8
v -9 2 8
v -8 1 8
v -8 2 8
v -4 4 8
v -4 5 8
v 4 4 8
v 4 5 8
v 8 0 -1
v 8 1 -1
v 8 2 -1
v 9 0 -1
v 9 2 -1
v -4 5 -8
v -4 6 -8
v 4 5 -8
v 4 6 -8
v -5 4 -9
v -5 5 -9
v 5 4 -9
v 5 5 -9
v -9 1 -10
v -9 2 -10
v -8 1 -10
v -8 2 -10
v -6 3 -10
v -6 4 -10
v 6 3 -10
v 6 4 -10
v -7 2 -11
v -7 3 -11
v 7 2 -11
v 7 3 -11
v -8 1 -12
v -8 2 -12
v 8 1 -12
v 8 2 -12
v 8 0 1
v 9 0 1
v 8 0 -1
v 9 0 -1
v -8 1 12
v 8 1 12
v -7 1 11
v 7 1 11
v -9 1 10
v -8 1 10
v -9 1 8
v -8 1 8
v 8 1 1
v 8 1 -1
v -9 1 -8
v -8 1 -8
v -9 1 -10
v -8 1 -10
v -7 1 -11
v 7 1 -11
v -8 1 -12
v 8 1 -12
v -7 2 11
v 7 2 11
v -6 2 10
v 6 2 10
v -6 2 -10
v 6 2 -10
v -7 2 -11
v 7 2 -11
v -6 3 10
v 6 3 10
v -5 3 9
v 5 3 9
v -5 3 -9
v 5 3 -9
v -6 3 -10
v 6 3 -10
v -5 4 9
v 5 4 9
v -4 4 8
v 4 4 8
v -4 4 -8
v 4 4 -8
v -5 4 -9
v 5 4 -9
v -4 5 8
v 4 5 8
v -4 5 -8
v 4 5 -8
v -8 2 12
v 8 2 12
v -7 2 11
v 7 2 11
v -9 2 10
v -8 2 10
v -9 2 8
v -8 2 8
v 8 2 1
v 9 2 1
v 8 2 -1
v 9 2 -1
v -9 2 -8
v -8 2 -8
v -9 2 -10
v -8 2 -10
v -7 2 -11
v 7 2 -11
v -8 2 -12
v 8 2 -12
v -7 3 11
v 7 3 11
v -6 3 10
v 6 3 10
v -6 3 -10
v 6 3 -10
v -7 3 -11
v 7 3 -11
v -6 4 10
v 6 4 10
v -5 4 9
v 5 4 9
v -5 4 -9
v 5 4 -9
v -6 4 -10
v 6 4 -10
v -5 5 9
v 5 5 9
v -4 5 8
v 4 5 8
v -4 5 -8
v 4 5 -8
v -5 5 -9
v 5 5 -9
v -4 6 8
v 4 6 8
v -4 6 -8
v 4 6 -8

# faces
f 5/2/1 2/2/1 1/2/1
f 6/2/1 2/2/1 5/2/1
f 7/2/1 4/2/1 3/2/1
f 8/2/1 4/2/1 7/2/1
f 15/1/1 10/1/1 9/1/1
f 16/1/1 10/1/1 15/1/1
f 17/1/1 12/1/1 11/1/1
f 18/1/1 12/1/1 17/1/1
f 19/1/1 14/1/1 13/1/1
f 20/1/1 14/1/1 19/1/1
f 23/1/1 22/1/1 21/1/1
f 24/1/1 22/1/1 23/1/1
f 27/1/1 26/1/1 25/1/1
f 28/1/1 26/1/1 27/1/1
f 31/1/1 30/1/1 29/1/1
f 32/1/1 30/1/1 31/1/1
f 35/1/1 34/1/1 33/1/1
f 36/1/1 34/1/1 35/1/1
f 39/1/1 38/1/1 37/1/1
f 40/1/1 38/1/1 39/1/1
f 43/1/1 42/1/1 41/1/1
f 44/1/1 42/1/1 43/1/1
f 47/1/1 46/1/1 45/1/1
f 48/1/1 46/1/1 47/1/1
f 51/1/1 50/1/1 49/1/1
f 52/1/1 50/1/1 51/1/1
f 55/2/1 54/2/1 53/2/1
f 56/2/1 54/2/1 55/2/1
f 57/1/2 58/1/2 59/1/2
f 59/1/2 58/1/2 60/1/2
f 61/1/2 62/1/2 63/1/2
f 63/1/2 62/1/2 64/1/2
f 65/1/2 66/1/2 67/1/2
f 67/1/2 66/1/2 68/1/2
f 69/1/2 70/1/2 71/1/2
f 71/1/2 70/1/2 72/1/2
f 73/1/2 74/1/2 75/1/2
f 75/1/2 74/1/2 76/1/2
f 77/1/2 78/1/2 79/1/2
f 79/1/2 78/1/2 80/1/2
f 81/1/2 82/1/2 83/1/2
f 83/1/2 82/1/2 84/1/2
f 85/1/2 86/1/2 87/1/2
f 87/1/2 86/1/2 88/1/2
f 89/1/2 90/1/2 93/1/2
f 93/1/2 90/1/2 94/1/2
f 91/1/2 92/1/2 95/1/2
f 95/1/2 92/1/2 96/1/2
f 97/2/2 98/2/2 99/2/2
f 99/2/2 98/2/2 100/2/2
f 103/1/3 102/1/3 101/1/3
f 104/1/3 102/1/3 103/1/3
f 107/1/3 106/1/3 105/1/3
f 108/1/3 106/1/3 107/1/3
f 111/2/3 110/2/3 109/2/3
f 112/2/3 110/2/3 111/2/3
f 115/1/3 114/1/3 113/1/3
f 116/1/3 114/1/3 115/1/3
f 119/1/3 118/1/3 117/1/3
f 120/1/3 118/1/3 119/1/3
f 123/1/3 122/1/3 121/1/3
f 124/1/3 122/1/3 123/1/3
f 128/2/3 126/2/3 125/2/3
f 128/2/3 127/2/3 126/2/3
f 129/2/3 127/2/3 128/2/3
f 132/2/3 131/2/3 130/2/3
f 133/2/3 131/2/3 132/2/3
f 136/1/3 135/1/3 134/1/3
f 137/1/3 135/1/3 136/1/3
f 140/1/3 139/1/3 138/1/3
f 141/1/3 139/1/3 140/1/3
f 144/1/3 143/1/3 142/1/3
f 145/1/3 143/1/3 144/1/3
f 148/1/3 147/1/3 146/1/3
f 149/1/3 147/1/3 148/1/3
f 150/1/4 151/1/4 152/1/4
f 152/1/4 151/1/4 153/1/4
f 154/1/4 155/1/4 156/1/4
f 156/1/4 155/1/4 157/1/4
f 158/1/4 159/1/4 160/1/4
f 160/1/4 159/1/4 161/1/4
f 162/2/4 163/2/4 164/2/4
f 164/2/4 163/2/4 165/2/4
f 166/1/4 167/1/4 168/1/4
f 168/1/4 167/1/4 169/1/4
f 170/2/4 171/2/4 173/2/4
f 171/2/4 172/2/4 173/2/4
f 173/2/4 172/2/4 174/2/4
f 175/1/4 176/1/4 177/1/4
f 177/1/4 176/1/4 178/1/4
f 179/1/4 180/1/4 181/1/4
f 181/1/4 180/1/4 182/1/4
f 183/2/4 184/2/4 185/2/4
f 185/2/4 184/2/4 186/2/4
f 187/1/4 188/1/4 189/1/4
f 189/1/4 188/1/4 190/1/4
f 191/1/4 192/1/4 193/1/4
f 193/1/4 192/1/4 194/1/4
f 195/1/4 196/1/4 197/1/4
f 197/1/4 196/1/4 198/1/4
f 201/2/5 200/2/5 199/2/5
f 202/2/5 200/2/5 201/2/5
f 205/1/5 204/1/5 203/1/5
f 206/1/5 204/1/5 205/1/5
f 208/1/5 205/1/5 203/1/5
f 209/2/5 208/2/5 207/2/5
f 210/1/5 205/1/5 208/1/5
f 210/2/5 208/2/5 209/2/5
f 211/1/5 204/1/5 206/1/5
f 212/1/5 211/1/5 206/1/5
f 214/1/5 205/1/5 210/1/5
f 215/2/5 214/2/5 213/2/5
f 216/1/5 205/1/5 214/1/5
f 216/2/5 214/2/5 215/2/5
f 217/1/5 205/1/5 216/1/5
f 218/1/5 212/1/5 206/1/5
f 219/1/5 217/1/5 216/1/5
f 219/1/5 218/1/5 217/1/5
f 220/1/5 212/1/5 218/1/5
f 220/1/5 218/1/5 219/1/5
f 223/1/5 222/1/5 221/1/5
f 224/1/5 222/1/5 223/1/5
f 225/1/5 223/1/5 221/1/5
f 226/1/5 222/1/5 224/1/5
f 227/1/5 225/1/5 221/1/5
f 227/1/5 226/1/5 225/1/5
f 228/1/5 222/1/5 226/1/5
f 228/1/5 226/1/5 227/1/5
f 231/1/5 230/1/5 229/1/5
f 232/1/5 230/1/5 231/1/5
f 233/1/5 231/1/5 229/1/5
f 234/1/5 230/1/5 232/1/5
f 235/1/5 233/1/5 229/1/5
f 235/1/5 234/1/5 233/1/5
f 236/1/5 230/1/5 234/1/5
f 236/1/5 234/1/5 235/1/5
f 239/1/5 238/1/5 237/1/5
f 240/1/5 238/1/5 239/1/5
f 241/1/5 239/1/5 237/1/5
f 242/1/5 238/1/5 240/1/5
f 243/1/5 241/1/5 237/1/5
f 243/1/5 242/1/5 241/1/5
f 244/1/5 238/1/5 242/1/5
f 244/1/5 242/1/5 243/1/5
f 247/1/5 246/1/5 245/1/5
f 248/1/5 246/1/5 247/1/5
f 249/1/6 250/1/6 251/1/6
f 251/1/6 250/1/6 252/1/6
f 249/1/6 251/1/6 254/1/6
f 253/2/6 254/2/6 255/2/6
f 254/1/6 251/1/6 256/1/6
f 255/2/6 254/2/6 256/2/6
f 252/1/6 250/1/6 257/1/6
f 252/1/6 257/1/6 259/1/6
f 257/2/6 258/2/6 259/2/6
f 259/2/6 258/2/6 260/2/6
f 256/1/6 251/1/6 262/1/6
f 261/2/6 262/2/6 263/2/6
f 262/1/6 251/1/6 264/1/6
f 263/2/6 262/2/6 264/2/6
f 264/1/6 251/1/6 265/1/6
f 252/1/6 259/1/6 266/1/6
f 264/1/6 265/1/6 267/1/6
f 265/1/6 266/1/6 267/1/6
f 266/1/6 259/1/6 268/1/6
f 267/1/6 266/1/6 268/1/6
f 269/1/6 270/1/6 271/1/6
f 271/1/6 270/1/6 272/1/6
f 269/1/6 271/1/6 273/1/6
f 272/1/6 270/1/6 274/1/6
f 269/1/6 273/1/6 275/1/6
f 273/1/6 274/1/6 275/1/6
f 274/1/6 270/1/6 276/1/6
f 275/1/6 274/1/6 276/1/6
f 277/1/6 278/1/6 279/1/6
f 279/1/6 278/1/6 280/1/6
f 277/1/6 279/1/6 281/1/6
f 280/1/6 278/1/6 282/1/6
f 277/1/6 281/1/6 283/1/6
f 281/1/6 282/1/6 283/1/6
f 282/1/6 278/1/6 284/1/6
f 283/1/6 282/1/6 284/1/6
f 285/1/6 286/1/6 287/1/6
f 287/1/6 286/1/6 288/1/6
f 285/1/6 287/1/6 289/1/6
f 288/1/6 286/1/6 290/1/6
f 285/1/6 289/1/6 291/1/6
f 289/1/6 290/1/6 291/1/6
f 290/1/6 286/1/6 292/1/6
f 291/1/6 290/1/6 292/1/6
f 293/1/6 294/1/6 295/1/6
f 295/1/6 294/1/6 296/1/6
