# MagicaVoxel @ Ephtracy

# group
g Crate D

# material
mtllib Crate D.mtl
usemtl palette

# normals
vn -1 0 0
vn 1 0 0
vn 0 0 1
vn 0 0 -1
vn 0 -1 0
vn 0 1 0

# texcoords
vt 0.205078 0.5
vt 0.369141 0.5
vt 0.373047 0.5

# verts
v -9 0 12
v -9 0 -12
v -9 1 12
v -9 1 11
v -9 1 9
v -9 1 7
v -9 1 5
v -9 1 3
v -9 1 1
v -9 1 -1
v -9 1 -3
v -9 1 -5
v -9 1 -7
v -9 1 -9
v -9 1 -11
v -9 1 -12
v -9 9 12
v -9 9 11
v -9 9 9
v -9 9 7
v -9 9 5
v -9 9 3
v -9 9 1
v -9 9 -1
v -9 9 -3
v -9 9 -5
v -9 9 -7
v -9 9 -9
v -9 9 -11
v -9 9 -12
v -9 10 12
v -9 10 -12
v -8 0 13
v -8 0 12
v -8 0 -12
v -8 0 -13
v -8 1 13
v -8 1 12
v -8 1 -12
v -8 1 -13
v -8 9 13
v -8 9 12
v -8 9 -12
v -8 9 -13
v -8 10 13
v -8 10 12
v -8 10 -12
v -8 10 -13
v -3 5 14
v -3 5 13
v -3 5 -13
v -3 5 -14
v -3 7 14
v -3 7 13
v -3 7 -13
v -3 7 -14
v 2 5 14
v 2 5 13
v 2 5 -13
v 2 5 -14
v 2 6 14
v 2 6 13
v 2 6 -13
v 2 6 -14
v 8 1 12
v 8 1 11
v 8 1 9
v 8 1 7
v 8 1 5
v 8 1 3
v 8 1 1
v 8 1 -1
v 8 1 -3
v 8 1 -5
v 8 1 -7
v 8 1 -9
v 8 1 -11
v 8 1 -12
v 8 9 12
v 8 9 11
v 8 9 9
v 8 9 7
v 8 9 5
v 8 9 3
v 8 9 1
v 8 9 -1
v 8 9 -3
v 8 9 -5
v 8 9 -7
v 8 9 -9
v 8 9 -11
v 8 9 -12
v 8 10 12
v 8 10 -12
v -8 1 12
v -8 1 11
v -8 1 9
v -8 1 7
v -8 1 5
v -8 1 3
v -8 1 1
v -8 1 -1
v -8 1 -3
v -8 1 -5
v -8 1 -7
v -8 1 -9
v -8 1 -11
v -8 1 -12
v -8 9 12
v -8 9 11
v -8 9 9
v -8 9 7
v -8 9 5
v -8 9 3
v -8 9 1
v -8 9 -1
v -8 9 -3
v -8 9 -5
v -8 9 -7
v -8 9 -9
v -8 9 -11
v -8 9 -12
v -8 10 12
v -8 10 -12
v -2 5 14
v -2 5 13
v -2 5 -13
v -2 5 -14
v -2 6 14
v -2 6 13
v -2 6 -13
v -2 6 -14
v 3 5 14
v 3 5 13
v 3 5 -13
v 3 5 -14
v 3 7 14
v 3 7 13
v 3 7 -13
v 3 7 -14
v 8 0 13
v 8 0 12
v 8 0 -12
v 8 0 -13
v 8 1 13
v 8 1 12
v 8 1 -12
v 8 1 -13
v 8 9 13
v 8 9 12
v 8 9 -12
v 8 9 -13
v 8 10 13
v 8 10 12
v 8 10 -12
v 8 10 -13
v 9 0 12
v 9 0 -12
v 9 1 12
v 9 1 11
v 9 1 9
v 9 1 7
v 9 1 5
v 9 1 3
v 9 1 1
v 9 1 -1
v 9 1 -3
v 9 1 -5
v 9 1 -7
v 9 1 -9
v 9 1 -11
v 9 1 -12
v 9 9 12
v 9 9 11
v 9 9 9
v 9 9 7
v 9 9 5
v 9 9 3
v 9 9 1
v 9 9 -1
v 9 9 -3
v 9 9 -5
v 9 9 -7
v 9 9 -9
v 9 9 -11
v 9 9 -12
v 9 10 12
v 9 10 -12
v -3 5 14
v -3 7 14
v -2 5 14
v -2 6 14
v 2 5 14
v 2 6 14
v 3 5 14
v 3 7 14
v -8 0 13
v -8 1 13
v -8 9 13
v -8 10 13
v -7 1 13
v -7 9 13
v -5 1 13
v -5 9 13
v -3 1 13
v -3 5 13
v -3 7 13
v -3 9 13
v -2 5 13
v -2 6 13
v -1 1 13
v -1 6 13
v -1 7 13
v -1 9 13
v 1 1 13
v 1 6 13
v 1 7 13
v 1 9 13
v 2 5 13
v 2 6 13
v 3 1 13
v 3 5 13
v 3 7 13
v 3 9 13
v 5 1 13
v 5 9 13
v 7 1 13
v 7 9 13
v 8 0 13
v 8 1 13
v 8 9 13
v 8 10 13
v -9 0 12
v -9 1 12
v -9 9 12
v -9 10 12
v -8 0 12
v -8 1 12
v -8 9 12
v -8 10 12
v 8 0 12
v 8 1 12
v 8 9 12
v 8 10 12
v 9 0 12
v 9 1 12
v 9 9 12
v 9 10 12
v -8 1 -12
v -8 9 -12
v -8 10 -12
v -7 1 -12
v -7 9 -12
v -5 1 -12
v -5 9 -12
v -3 1 -12
v -3 9 -12
v -1 1 -12
v -1 9 -12
v 1 1 -12
v 1 9 -12
v 3 1 -12
v 3 9 -12
v 5 1 -12
v 5 9 -12
v 7 1 -12
v 7 9 -12
v 8 1 -12
v 8 9 -12
v 8 10 -12
v -8 1 12
v -8 9 12
v -8 10 12
v -7 1 12
v -7 9 12
v -5 1 12
v -5 9 12
v -3 1 12
v -3 9 12
v -1 1 12
v -1 9 12
v 1 1 12
v 1 9 12
v 3 1 12
v 3 9 12
v 5 1 12
v 5 9 12
v 7 1 12
v 7 9 12
v 8 1 12
v 8 9 12
v 8 10 12
v -9 0 -12
v -9 1 -12
v -9 9 -12
v -9 10 -12
v -8 0 -12
v -8 1 -12
v -8 9 -12
v -8 10 -12
v 8 0 -12
v 8 1 -12
v 8 9 -12
v 8 10 -12
v 9 0 -12
v 9 1 -12
v 9 9 -12
v 9 10 -12
v -8 0 -13
v -8 1 -13
v -8 9 -13
v -8 10 -13
v -7 1 -13
v -7 9 -13
v -5 1 -13
v -5 9 -13
v -3 1 -13
v -3 5 -13
v -3 7 -13
v -3 9 -13
v -2 5 -13
v -2 6 -13
v -1 1 -13
v -1 6 -13
v -1 7 -13
v -1 9 -13
v 1 1 -13
v 1 6 -13
v 1 7 -13
v 1 9 -13
v 2 5 -13
v 2 6 -13
v 3 1 -13
v 3 5 -13
v 3 7 -13
v 3 9 -13
v 5 1 -13
v 5 9 -13
v 7 1 -13
v 7 9 -13
v 8 0 -13
v 8 1 -13
v 8 9 -13
v 8 10 -13
v -3 5 -14
v -3 7 -14
v -2 5 -14
v -2 6 -14
v 2 5 -14
v 2 6 -14
v 3 5 -14
v 3 7 -14
v -8 0 13
v 8 0 13
v -9 0 12
v -8 0 12
v 8 0 12
v 9 0 12
v -7 0 11
v 7 0 11
v -7 0 -11
v 7 0 -11
v -9 0 -12
v -8 0 -12
v 8 0 -12
v 9 0 -12
v -8 0 -13
v 8 0 -13
v -3 5 14
v -2 5 14
v 2 5 14
v 3 5 14
v -3 5 13
v -2 5 13
v 2 5 13
v 3 5 13
v -3 5 -13
v -2 5 -13
v 2 5 -13
v 3 5 -13
v -3 5 -14
v -2 5 -14
v 2 5 -14
v 3 5 -14
v -2 6 14
v 2 6 14
v -2 6 13
v -1 6 13
v 1 6 13
v 2 6 13
v -2 6 -13
v -1 6 -13
v 1 6 -13
v 2 6 -13
v -2 6 -14
v 2 6 -14
v -8 1 12
v -7 1 12
v -5 1 12
v -3 1 12
v -1 1 12
v 1 1 12
v 3 1 12
v 5 1 12
v 7 1 12
v 8 1 12
v -8 1 11
v -7 1 11
v 7 1 11
v 8 1 11
v -8 1 9
v 8 1 9
v -8 1 7
v 8 1 7
v -8 1 5
v 8 1 5
v -8 1 3
v 8 1 3
v -8 1 1
v 8 1 1
v -8 1 -1
v 8 1 -1
v -8 1 -3
v 8 1 -3
v -8 1 -5
v 8 1 -5
v -8 1 -7
v 8 1 -7
v -8 1 -9
v 8 1 -9
v -8 1 -11
v -7 1 -11
v 7 1 -11
v 8 1 -11
v -8 1 -12
v -7 1 -12
v -5 1 -12
v -3 1 -12
v -1 1 -12
v 1 1 -12
v 3 1 -12
v 5 1 -12
v 7 1 -12
v 8 1 -12
v -3 7 14
v 3 7 14
v -3 7 13
v -1 7 13
v 1 7 13
v 3 7 13
v -3 7 -13
v -1 7 -13
v 1 7 -13
v 3 7 -13
v -3 7 -14
v 3 7 -14
v -8 10 13
v 8 10 13
v -9 10 12
v -8 10 12
v 8 10 12
v 9 10 12
v -9 10 -12
v -8 10 -12
v 8 10 -12
v 9 10 -12
v -8 10 -13
v 8 10 -13

# faces
f 3/3/1 2/3/1 1/3/1
f 4/3/1 2/3/1 3/3/1
f 5/3/1 2/3/1 4/3/1
f 6/3/1 2/3/1 5/3/1
f 7/3/1 2/3/1 6/3/1
f 8/3/1 2/3/1 7/3/1
f 9/3/1 2/3/1 8/3/1
f 10/3/1 2/3/1 9/3/1
f 11/3/1 2/3/1 10/3/1
f 12/3/1 2/3/1 11/3/1
f 13/3/1 2/3/1 12/3/1
f 14/3/1 2/3/1 13/3/1
f 15/3/1 2/3/1 14/3/1
f 16/3/1 2/3/1 15/3/1
f 17/2/1 4/2/1 3/2/1
f 18/3/1 5/3/1 4/3/1
f 18/2/1 4/2/1 17/2/1
f 19/2/1 6/2/1 5/2/1
f 19/3/1 5/3/1 18/3/1
f 20/3/1 7/3/1 6/3/1
f 20/2/1 6/2/1 19/2/1
f 21/2/1 8/2/1 7/2/1
f 21/3/1 7/3/1 20/3/1
f 22/3/1 9/3/1 8/3/1
f 22/2/1 8/2/1 21/2/1
f 23/2/1 10/2/1 9/2/1
f 23/3/1 9/3/1 22/3/1
f 24/3/1 11/3/1 10/3/1
f 24/2/1 10/2/1 23/2/1
f 25/2/1 12/2/1 11/2/1
f 25/3/1 11/3/1 24/3/1
f 26/3/1 13/3/1 12/3/1
f 26/2/1 12/2/1 25/2/1
f 27/2/1 14/2/1 13/2/1
f 27/3/1 13/3/1 26/3/1
f 28/3/1 15/3/1 14/3/1
f 28/2/1 14/2/1 27/2/1
f 29/2/1 16/2/1 15/2/1
f 29/3/1 15/3/1 28/3/1
f 30/2/1 16/2/1 29/2/1
f 31/3/1 18/3/1 17/3/1
f 31/3/1 19/3/1 18/3/1
f 31/3/1 30/3/1 29/3/1
f 31/3/1 29/3/1 28/3/1
f 31/3/1 28/3/1 27/3/1
f 31/3/1 27/3/1 26/3/1
f 31/3/1 26/3/1 25/3/1
f 31/3/1 25/3/1 24/3/1
f 31/3/1 24/3/1 23/3/1
f 31/3/1 23/3/1 22/3/1
f 31/3/1 22/3/1 21/3/1
f 31/3/1 21/3/1 20/3/1
f 31/3/1 20/3/1 19/3/1
f 32/3/1 30/3/1 31/3/1
f 37/3/1 34/3/1 33/3/1
f 38/3/1 34/3/1 37/3/1
f 39/3/1 36/3/1 35/3/1
f 40/3/1 36/3/1 39/3/1
f 41/2/1 38/2/1 37/2/1
f 42/2/1 38/2/1 41/2/1
f 43/2/1 40/2/1 39/2/1
f 44/2/1 40/2/1 43/2/1
f 45/3/1 42/3/1 41/3/1
f 46/3/1 42/3/1 45/3/1
f 47/3/1 44/3/1 43/3/1
f 48/3/1 44/3/1 47/3/1
f 53/1/1 50/1/1 49/1/1
f 54/1/1 50/1/1 53/1/1
f 55/1/1 52/1/1 51/1/1
f 56/1/1 52/1/1 55/1/1
f 61/1/1 58/1/1 57/1/1
f 62/1/1 58/1/1 61/1/1
f 63/1/1 60/1/1 59/1/1
f 64/1/1 60/1/1 63/1/1
f 79/2/1 66/2/1 65/2/1
f 80/3/1 67/3/1 66/3/1
f 80/2/1 66/2/1 79/2/1
f 81/2/1 68/2/1 67/2/1
f 81/3/1 67/3/1 80/3/1
f 82/3/1 69/3/1 68/3/1
f 82/2/1 68/2/1 81/2/1
f 83/2/1 70/2/1 69/2/1
f 83/3/1 69/3/1 82/3/1
f 84/3/1 71/3/1 70/3/1
f 84/2/1 70/2/1 83/2/1
f 85/2/1 72/2/1 71/2/1
f 85/3/1 71/3/1 84/3/1
f 86/3/1 73/3/1 72/3/1
f 86/2/1 72/2/1 85/2/1
f 87/2/1 74/2/1 73/2/1
f 87/3/1 73/3/1 86/3/1
f 88/3/1 75/3/1 74/3/1
f 88/2/1 74/2/1 87/2/1
f 89/2/1 76/2/1 75/2/1
f 89/3/1 75/3/1 88/3/1
f 90/3/1 77/3/1 76/3/1
f 90/2/1 76/2/1 89/2/1
f 91/2/1 78/2/1 77/2/1
f 91/3/1 77/3/1 90/3/1
f 92/2/1 78/2/1 91/2/1
f 93/3/1 90/3/1 89/3/1
f 93/3/1 80/3/1 79/3/1
f 93/3/1 92/3/1 91/3/1
f 93/3/1 91/3/1 90/3/1
f 93/3/1 89/3/1 88/3/1
f 93/3/1 88/3/1 87/3/1
f 93/3/1 87/3/1 86/3/1
f 93/3/1 86/3/1 85/3/1
f 93/3/1 85/3/1 84/3/1
f 93/3/1 84/3/1 83/3/1
f 93/3/1 83/3/1 82/3/1
f 93/3/1 82/3/1 81/3/1
f 93/3/1 81/3/1 80/3/1
f 94/3/1 92/3/1 93/3/1
f 95/2/2 96/2/2 109/2/2
f 96/3/2 97/3/2 110/3/2
f 109/2/2 96/2/2 110/2/2
f 97/2/2 98/2/2 111/2/2
f 110/3/2 97/3/2 111/3/2
f 98/3/2 99/3/2 112/3/2
f 111/2/2 98/2/2 112/2/2
f 99/2/2 100/2/2 113/2/2
f 112/3/2 99/3/2 113/3/2
f 100/3/2 101/3/2 114/3/2
f 113/2/2 100/2/2 114/2/2
f 101/2/2 102/2/2 115/2/2
f 114/3/2 101/3/2 115/3/2
f 102/3/2 103/3/2 116/3/2
f 115/2/2 102/2/2 116/2/2
f 103/2/2 104/2/2 117/2/2
f 116/3/2 103/3/2 117/3/2
f 104/3/2 105/3/2 118/3/2
f 117/2/2 104/2/2 118/2/2
f 105/2/2 106/2/2 119/2/2
f 118/3/2 105/3/2 119/3/2
f 106/3/2 107/3/2 120/3/2
f 119/2/2 106/2/2 120/2/2
f 107/2/2 108/2/2 121/2/2
f 120/3/2 107/3/2 121/3/2
f 121/2/2 108/2/2 122/2/2
f 119/3/2 120/3/2 123/3/2
f 109/3/2 110/3/2 123/3/2
f 121/3/2 122/3/2 123/3/2
f 120/3/2 121/3/2 123/3/2
f 118/3/2 119/3/2 123/3/2
f 117/3/2 118/3/2 123/3/2
f 116/3/2 117/3/2 123/3/2
f 115/3/2 116/3/2 123/3/2
f 114/3/2 115/3/2 123/3/2
f 113/3/2 114/3/2 123/3/2
f 112/3/2 113/3/2 123/3/2
f 111/3/2 112/3/2 123/3/2
f 110/3/2 111/3/2 123/3/2
f 123/3/2 122/3/2 124/3/2
f 125/1/2 126/1/2 129/1/2
f 129/1/2 126/1/2 130/1/2
f 127/1/2 128/1/2 131/1/2
f 131/1/2 128/1/2 132/1/2
f 133/1/2 134/1/2 137/1/2
f 137/1/2 134/1/2 138/1/2
f 135/1/2 136/1/2 139/1/2
f 139/1/2 136/1/2 140/1/2
f 141/3/2 142/3/2 145/3/2
f 145/3/2 142/3/2 146/3/2
f 143/3/2 144/3/2 147/3/2
f 147/3/2 144/3/2 148/3/2
f 145/2/2 146/2/2 149/2/2
f 149/2/2 146/2/2 150/2/2
f 147/2/2 148/2/2 151/2/2
f 151/2/2 148/2/2 152/2/2
f 149/3/2 150/3/2 153/3/2
f 153/3/2 150/3/2 154/3/2
f 151/3/2 152/3/2 155/3/2
f 155/3/2 152/3/2 156/3/2
f 157/3/2 158/3/2 159/3/2
f 159/3/2 158/3/2 160/3/2
f 160/3/2 158/3/2 161/3/2
f 161/3/2 158/3/2 162/3/2
f 162/3/2 158/3/2 163/3/2
f 163/3/2 158/3/2 164/3/2
f 164/3/2 158/3/2 165/3/2
f 165/3/2 158/3/2 166/3/2
f 166/3/2 158/3/2 167/3/2
f 167/3/2 158/3/2 168/3/2
f 168/3/2 158/3/2 169/3/2
f 169/3/2 158/3/2 170/3/2
f 170/3/2 158/3/2 171/3/2
f 171/3/2 158/3/2 172/3/2
f 159/2/2 160/2/2 173/2/2
f 160/3/2 161/3/2 174/3/2
f 173/2/2 160/2/2 174/2/2
f 161/2/2 162/2/2 175/2/2
f 174/3/2 161/3/2 175/3/2
f 162/3/2 163/3/2 176/3/2
f 175/2/2 162/2/2 176/2/2
f 163/2/2 164/2/2 177/2/2
f 176/3/2 163/3/2 177/3/2
f 164/3/2 165/3/2 178/3/2
f 177/2/2 164/2/2 178/2/2
f 165/2/2 166/2/2 179/2/2
f 178/3/2 165/3/2 179/3/2
f 166/3/2 167/3/2 180/3/2
f 179/2/2 166/2/2 180/2/2
f 167/2/2 168/2/2 181/2/2
f 180/3/2 167/3/2 181/3/2
f 168/3/2 169/3/2 182/3/2
f 181/2/2 168/2/2 182/2/2
f 169/2/2 170/2/2 183/2/2
f 182/3/2 169/3/2 183/3/2
f 170/3/2 171/3/2 184/3/2
f 183/2/2 170/2/2 184/2/2
f 171/2/2 172/2/2 185/2/2
f 184/3/2 171/3/2 185/3/2
f 185/2/2 172/2/2 186/2/2
f 173/3/2 174/3/2 187/3/2
f 174/3/2 175/3/2 187/3/2
f 185/3/2 186/3/2 187/3/2
f 184/3/2 185/3/2 187/3/2
f 183/3/2 184/3/2 187/3/2
f 182/3/2 183/3/2 187/3/2
f 181/3/2 182/3/2 187/3/2
f 180/3/2 181/3/2 187/3/2
f 179/3/2 180/3/2 187/3/2
f 178/3/2 179/3/2 187/3/2
f 177/3/2 178/3/2 187/3/2
f 176/3/2 177/3/2 187/3/2
f 175/3/2 176/3/2 187/3/2
f 187/3/2 186/3/2 188/3/2
f 191/1/3 190/1/3 189/1/3
f 192/1/3 190/1/3 191/1/3
f 194/1/3 190/1/3 192/1/3
f 195/1/3 194/1/3 193/1/3
f 196/1/3 190/1/3 194/1/3
f 196/1/3 194/1/3 195/1/3
f 201/3/3 198/3/3 197/3/3
f 201/2/3 199/2/3 198/2/3
f 202/3/3 200/3/3 199/3/3
f 202/2/3 199/2/3 201/2/3
f 203/3/3 201/3/3 197/3/3
f 203/3/3 202/3/3 201/3/3
f 204/3/3 200/3/3 202/3/3
f 204/3/3 202/3/3 203/3/3
f 205/3/3 203/3/3 197/3/3
f 205/2/3 204/2/3 203/2/3
f 206/2/3 204/2/3 205/2/3
f 207/2/3 204/2/3 206/2/3
f 208/3/3 200/3/3 204/3/3
f 208/2/3 204/2/3 207/2/3
f 209/3/3 206/3/3 205/3/3
f 211/3/3 205/3/3 197/3/3
f 211/3/3 210/3/3 209/3/3
f 211/3/3 209/3/3 205/3/3
f 212/3/3 210/3/3 211/3/3
f 213/3/3 208/3/3 207/3/3
f 214/3/3 200/3/3 208/3/3
f 214/3/3 208/3/3 213/3/3
f 215/2/3 212/2/3 211/2/3
f 215/3/3 211/3/3 197/3/3
f 216/2/3 212/2/3 215/2/3
f 217/2/3 214/2/3 213/2/3
f 218/3/3 200/3/3 214/3/3
f 218/2/3 214/2/3 217/2/3
f 219/3/3 216/3/3 215/3/3
f 220/3/3 216/3/3 219/3/3
f 221/3/3 215/3/3 197/3/3
f 221/3/3 219/3/3 215/3/3
f 222/3/3 219/3/3 221/3/3
f 223/3/3 218/3/3 217/3/3
f 224/3/3 200/3/3 218/3/3
f 224/3/3 218/3/3 223/3/3
f 225/2/3 223/2/3 222/2/3
f 225/2/3 222/2/3 221/2/3
f 225/2/3 224/2/3 223/2/3
f 225/3/3 221/3/3 197/3/3
f 226/3/3 200/3/3 224/3/3
f 226/2/3 224/2/3 225/2/3
f 227/3/3 225/3/3 197/3/3
f 227/3/3 226/3/3 225/3/3
f 228/3/3 200/3/3 226/3/3
f 228/3/3 226/3/3 227/3/3
f 229/3/3 227/3/3 197/3/3
f 230/2/3 228/2/3 227/2/3
f 230/3/3 227/3/3 229/3/3
f 231/3/3 200/3/3 228/3/3
f 231/2/3 228/2/3 230/2/3
f 232/3/3 200/3/3 231/3/3
f 237/3/3 234/3/3 233/3/3
f 238/2/3 235/2/3 234/2/3
f 238/3/3 234/3/3 237/3/3
f 239/3/3 236/3/3 235/3/3
f 239/2/3 235/2/3 238/2/3
f 240/3/3 236/3/3 239/3/3
f 245/3/3 242/3/3 241/3/3
f 246/2/3 243/2/3 242/2/3
f 246/3/3 242/3/3 245/3/3
f 247/3/3 244/3/3 243/3/3
f 247/2/3 243/2/3 246/2/3
f 248/3/3 244/3/3 247/3/3
f 252/2/3 250/2/3 249/2/3
f 253/3/3 251/3/3 250/3/3
f 253/2/3 250/2/3 252/2/3
f 254/3/3 253/3/3 252/3/3
f 255/3/3 251/3/3 253/3/3
f 255/3/3 253/3/3 254/3/3
f 256/2/3 255/2/3 254/2/3
f 257/3/3 251/3/3 255/3/3
f 257/2/3 255/2/3 256/2/3
f 258/3/3 257/3/3 256/3/3
f 259/3/3 251/3/3 257/3/3
f 259/3/3 257/3/3 258/3/3
f 260/2/3 259/2/3 258/2/3
f 261/3/3 251/3/3 259/3/3
f 261/2/3 259/2/3 260/2/3
f 262/3/3 261/3/3 260/3/3
f 263/3/3 251/3/3 261/3/3
f 263/3/3 261/3/3 262/3/3
f 264/2/3 263/2/3 262/2/3
f 265/3/3 251/3/3 263/3/3
f 265/2/3 263/2/3 264/2/3
f 266/3/3 265/3/3 264/3/3
f 267/3/3 251/3/3 265/3/3
f 267/3/3 265/3/3 266/3/3
f 268/2/3 267/2/3 266/2/3
f 269/3/3 251/3/3 267/3/3
f 269/2/3 267/2/3 268/2/3
f 270/3/3 251/3/3 269/3/3
f 271/2/4 272/2/4 274/2/4
f 272/3/4 273/3/4 275/3/4
f 274/2/4 272/2/4 275/2/4
f 274/3/4 275/3/4 276/3/4
f 275/3/4 273/3/4 277/3/4
f 276/3/4 275/3/4 277/3/4
f 276/2/4 277/2/4 278/2/4
f 277/3/4 273/3/4 279/3/4
f 278/2/4 277/2/4 279/2/4
f 278/3/4 279/3/4 280/3/4
f 279/3/4 273/3/4 281/3/4
f 280/3/4 279/3/4 281/3/4
f 280/2/4 281/2/4 282/2/4
f 281/3/4 273/3/4 283/3/4
f 282/2/4 281/2/4 283/2/4
f 282/3/4 283/3/4 284/3/4
f 283/3/4 273/3/4 285/3/4
f 284/3/4 283/3/4 285/3/4
f 284/2/4 285/2/4 286/2/4
f 285/3/4 273/3/4 287/3/4
f 286/2/4 285/2/4 287/2/4
f 286/3/4 287/3/4 288/3/4
f 287/3/4 273/3/4 289/3/4
f 288/3/4 287/3/4 289/3/4
f 288/2/4 289/2/4 290/2/4
f 289/3/4 273/3/4 291/3/4
f 290/2/4 289/2/4 291/2/4
f 291/3/4 273/3/4 292/3/4
f 293/3/4 294/3/4 297/3/4
f 294/2/4 295/2/4 298/2/4
f 297/3/4 294/3/4 298/3/4
f 295/3/4 296/3/4 299/3/4
f 298/2/4 295/2/4 299/2/4
f 299/3/4 296/3/4 300/3/4
f 301/3/4 302/3/4 305/3/4
f 302/2/4 303/2/4 306/2/4
f 305/3/4 302/3/4 306/3/4
f 303/3/4 304/3/4 307/3/4
f 306/2/4 303/2/4 307/2/4
f 307/3/4 304/3/4 308/3/4
f 309/3/4 310/3/4 313/3/4
f 310/2/4 311/2/4 313/2/4
f 311/3/4 312/3/4 314/3/4
f 313/2/4 311/2/4 314/2/4
f 309/3/4 313/3/4 315/3/4
f 313/3/4 314/3/4 315/3/4
f 314/3/4 312/3/4 316/3/4
f 315/3/4 314/3/4 316/3/4
f 309/3/4 315/3/4 317/3/4
f 315/2/4 316/2/4 317/2/4
f 317/2/4 316/2/4 318/2/4
f 318/2/4 316/2/4 319/2/4
f 316/3/4 312/3/4 320/3/4
f 319/2/4 316/2/4 320/2/4
f 317/3/4 318/3/4 321/3/4
f 309/3/4 317/3/4 323/3/4
f 321/3/4 322/3/4 323/3/4
f 317/3/4 321/3/4 323/3/4
f 323/3/4 322/3/4 324/3/4
f 319/3/4 320/3/4 325/3/4
f 320/3/4 312/3/4 326/3/4
f 325/3/4 320/3/4 326/3/4
f 323/2/4 324/2/4 327/2/4
f 309/3/4 323/3/4 327/3/4
f 327/2/4 324/2/4 328/2/4
f 325/2/4 326/2/4 329/2/4
f 326/3/4 312/3/4 330/3/4
f 329/2/4 326/2/4 330/2/4
f 327/3/4 328/3/4 331/3/4
f 331/3/4 328/3/4 332/3/4
f 309/3/4 327/3/4 333/3/4
f 327/3/4 331/3/4 333/3/4
f 333/3/4 331/3/4 334/3/4
f 329/3/4 330/3/4 335/3/4
f 330/3/4 312/3/4 336/3/4
f 335/3/4 330/3/4 336/3/4
f 334/2/4 335/2/4 337/2/4
f 333/2/4 334/2/4 337/2/4
f 335/2/4 336/2/4 337/2/4
f 309/3/4 333/3/4 337/3/4
f 336/3/4 312/3/4 338/3/4
f 337/2/4 336/2/4 338/2/4
f 309/3/4 337/3/4 339/3/4
f 337/3/4 338/3/4 339/3/4
f 338/3/4 312/3/4 340/3/4
f 339/3/4 338/3/4 340/3/4
f 309/3/4 339/3/4 341/3/4
f 339/2/4 340/2/4 342/2/4
f 341/3/4 339/3/4 342/3/4
f 340/3/4 312/3/4 343/3/4
f 342/2/4 340/2/4 343/2/4
f 343/3/4 312/3/4 344/3/4
f 345/1/4 346/1/4 347/1/4
f 347/1/4 346/1/4 348/1/4
f 348/1/4 346/1/4 350/1/4
f 349/1/4 350/1/4 351/1/4
f 350/1/4 346/1/4 352/1/4
f 351/1/4 350/1/4 352/1/4
f 356/3/5 354/3/5 353/3/5
f 357/3/5 354/3/5 356/3/5
f 359/3/5 356/3/5 355/3/5
f 359/3/5 358/3/5 357/3/5
f 359/3/5 357/3/5 356/3/5
f 360/3/5 358/3/5 359/3/5
f 361/3/5 359/3/5 355/3/5
f 361/2/5 360/2/5 359/2/5
f 362/3/5 358/3/5 360/3/5
f 362/2/5 360/2/5 361/2/5
f 363/3/5 361/3/5 355/3/5
f 363/3/5 362/3/5 361/3/5
f 364/3/5 362/3/5 363/3/5
f 365/3/5 358/3/5 362/3/5
f 365/3/5 362/3/5 364/3/5
f 366/3/5 358/3/5 365/3/5
f 367/3/5 365/3/5 364/3/5
f 368/3/5 365/3/5 367/3/5
f 373/1/5 370/1/5 369/1/5
f 374/1/5 370/1/5 373/1/5
f 375/1/5 372/1/5 371/1/5
f 376/1/5 372/1/5 375/1/5
f 381/1/5 378/1/5 377/1/5
f 382/1/5 378/1/5 381/1/5
f 383/1/5 380/1/5 379/1/5
f 384/1/5 380/1/5 383/1/5
f 387/1/5 386/1/5 385/1/5
f 388/1/5 386/1/5 387/1/5
f 389/1/5 386/1/5 388/1/5
f 390/1/5 386/1/5 389/1/5
f 395/1/5 392/1/5 391/1/5
f 395/1/5 394/1/5 393/1/5
f 395/1/5 393/1/5 392/1/5
f 396/1/5 394/1/5 395/1/5
f 397/3/6 398/3/6 407/3/6
f 405/3/6 406/3/6 407/3/6
f 404/3/6 405/3/6 407/3/6
f 403/3/6 404/3/6 407/3/6
f 402/3/6 403/3/6 407/3/6
f 401/3/6 402/3/6 407/3/6
f 400/3/6 401/3/6 407/3/6
f 399/3/6 400/3/6 407/3/6
f 398/3/6 399/3/6 407/3/6
f 407/3/6 406/3/6 408/3/6
f 408/3/6 406/3/6 409/3/6
f 409/3/6 406/3/6 410/3/6
f 407/3/6 408/3/6 411/3/6
f 409/3/6 410/3/6 412/3/6
f 411/3/6 408/3/6 413/3/6
f 409/3/6 412/3/6 414/3/6
f 413/3/6 408/3/6 415/3/6
f 409/3/6 414/3/6 416/3/6
f 415/3/6 408/3/6 417/3/6
f 409/3/6 416/3/6 418/3/6
f 417/3/6 408/3/6 419/3/6
f 409/3/6 418/3/6 420/3/6
f 419/3/6 408/3/6 421/3/6
f 409/3/6 420/3/6 422/3/6
f 421/3/6 408/3/6 423/3/6
f 409/3/6 422/3/6 424/3/6
f 423/3/6 408/3/6 425/3/6
f 409/3/6 424/3/6 426/3/6
f 425/3/6 408/3/6 427/3/6
f 409/3/6 426/3/6 428/3/6
f 427/3/6 408/3/6 429/3/6
f 409/3/6 428/3/6 430/3/6
f 429/3/6 408/3/6 431/3/6
f 408/2/6 409/2/6 432/2/6
f 431/3/6 408/3/6 432/3/6
f 409/3/6 430/3/6 433/3/6
f 432/2/6 409/2/6 433/2/6
f 433/3/6 430/3/6 434/3/6
f 431/3/6 432/3/6 435/3/6
f 432/3/6 433/3/6 435/3/6
f 433/3/6 434/3/6 435/3/6
f 435/3/6 434/3/6 436/3/6
f 436/3/6 434/3/6 437/3/6
f 437/3/6 434/3/6 438/3/6
f 438/3/6 434/3/6 439/3/6
f 439/3/6 434/3/6 440/3/6
f 440/3/6 434/3/6 441/3/6
f 441/3/6 434/3/6 442/3/6
f 442/3/6 434/3/6 443/3/6
f 443/3/6 434/3/6 444/3/6
f 445/1/6 446/1/6 447/1/6
f 447/1/6 446/1/6 448/1/6
f 448/1/6 446/1/6 449/1/6
f 449/1/6 446/1/6 450/1/6
f 451/1/6 452/1/6 455/1/6
f 453/1/6 454/1/6 455/1/6
f 452/1/6 453/1/6 455/1/6
f 455/1/6 454/1/6 456/1/6
f 457/3/6 458/3/6 460/3/6
f 460/3/6 458/3/6 461/3/6
f 459/3/6 460/3/6 463/3/6
f 463/3/6 460/3/6 464/3/6
f 461/3/6 462/3/6 465/3/6
f 465/3/6 462/3/6 466/3/6
f 464/3/6 465/3/6 467/3/6
f 467/3/6 465/3/6 468/3/6
