# MagicaVoxel @ Ephtracy

# group
g Door B 1.mtl

# material
mtllib Door B 1.mtl.mtl
usemtl palette

# normals
vn -1 0 0
vn 1 0 0
vn 0 0 1
vn 0 0 -1
vn 0 -1 0
vn 0 1 0

# texcoords
vt 0.0917969 0.5
vt 0.373047 0.5

# verts
v -1.5 7 -1.5
v -1.5 7 -3.5
v -1.5 8 -1.5
v -1.5 8 -3.5
v -0.5 0 4.5
v -0.5 0 -4.5
v -0.5 7 -1.5
v -0.5 7 -3.5
v -0.5 8 -1.5
v -0.5 8 -3.5
v -0.5 15 4.5
v -0.5 15 -4.5
v 0.5 0 4.5
v 0.5 0 -4.5
v 0.5 7 -1.5
v 0.5 7 -3.5
v 0.5 8 -1.5
v 0.5 8 -3.5
v 0.5 15 4.5
v 0.5 15 -4.5
v 1.5 7 -1.5
v 1.5 7 -3.5
v 1.5 8 -1.5
v 1.5 8 -3.5
v -0.5 0 4.5
v -0.5 15 4.5
v 0.5 0 4.5
v 0.5 15 4.5
v -1.5 7 -1.5
v -1.5 8 -1.5
v -0.5 7 -1.5
v -0.5 8 -1.5
v 0.5 7 -1.5
v 0.5 8 -1.5
v 1.5 7 -1.5
v 1.5 8 -1.5
v -1.5 7 -3.5
v -1.5 8 -3.5
v -0.5 7 -3.5
v -0.5 8 -3.5
v 0.5 7 -3.5
v 0.5 8 -3.5
v 1.5 7 -3.5
v 1.5 8 -3.5
v -0.5 0 -4.5
v -0.5 15 -4.5
v 0.5 0 -4.5
v 0.5 15 -4.5
v -0.5 0 4.5
v 0.5 0 4.5
v -0.5 0 -4.5
v 0.5 0 -4.5
v -1.5 7 -1.5
v -0.5 7 -1.5
v 0.5 7 -1.5
v 1.5 7 -1.5
v -1.5 7 -3.5
v -0.5 7 -3.5
v 0.5 7 -3.5
v 1.5 7 -3.5
v -1.5 8 -1.5
v -0.5 8 -1.5
v 0.5 8 -1.5
v 1.5 8 -1.5
v -1.5 8 -3.5
v -0.5 8 -3.5
v 0.5 8 -3.5
v 1.5 8 -3.5
v -0.5 15 4.5
v 0.5 15 4.5
v -0.5 15 -4.5
v 0.5 15 -4.5

# faces
f 3/2/1 2/2/1 1/2/1
f 4/2/1 2/2/1 3/2/1
f 7/1/1 6/1/1 5/1/1
f 8/1/1 6/1/1 7/1/1
f 9/1/1 7/1/1 5/1/1
f 10/1/1 6/1/1 8/1/1
f 11/1/1 9/1/1 5/1/1
f 11/1/1 10/1/1 9/1/1
f 12/1/1 6/1/1 10/1/1
f 12/1/1 10/1/1 11/1/1
f 13/1/2 14/1/2 15/1/2
f 15/1/2 14/1/2 16/1/2
f 13/1/2 15/1/2 17/1/2
f 16/1/2 14/1/2 18/1/2
f 13/1/2 17/1/2 19/1/2
f 17/1/2 18/1/2 19/1/2
f 18/1/2 14/1/2 20/1/2
f 19/1/2 18/1/2 20/1/2
f 21/2/2 22/2/2 23/2/2
f 23/2/2 22/2/2 24/2/2
f 27/1/3 26/1/3 25/1/3
f 28/1/3 26/1/3 27/1/3
f 31/2/3 30/2/3 29/2/3
f 32/2/3 30/2/3 31/2/3
f 35/2/3 34/2/3 33/2/3
f 36/2/3 34/2/3 35/2/3
f 37/2/4 38/2/4 39/2/4
f 39/2/4 38/2/4 40/2/4
f 41/2/4 42/2/4 43/2/4
f 43/2/4 42/2/4 44/2/4
f 45/1/4 46/1/4 47/1/4
f 47/1/4 46/1/4 48/1/4
f 51/1/5 50/1/5 49/1/5
f 52/1/5 50/1/5 51/1/5
f 57/2/5 54/2/5 53/2/5
f 58/2/5 54/2/5 57/2/5
f 59/2/5 56/2/5 55/2/5
f 60/2/5 56/2/5 59/2/5
f 61/2/6 62/2/6 65/2/6
f 65/2/6 62/2/6 66/2/6
f 63/2/6 64/2/6 67/2/6
f 67/2/6 64/2/6 68/2/6
f 69/1/6 70/1/6 71/1/6
f 71/1/6 70/1/6 72/1/6
