# MagicaVoxel @ Ephtracy

# group
g Door B 3

# material
mtllib Door B 3.mtl
usemtl palette

# normals
vn -1 0 0
vn 1 0 0
vn 0 0 1
vn 0 0 -1
vn 0 -1 0
vn 0 1 0

# texcoords
vt 0.0917969 0.5
vt 0.373047 0.5
vt 0.986328 0.5

# verts
v -1.5 7 -2.5
v -1.5 7 -3.5
v -1.5 8 -2.5
v -1.5 8 -3.5
v -0.5 0 4.5
v -0.5 0 -4.5
v -0.5 6 -2.5
v -0.5 6 -3.5
v -0.5 7 -2.5
v -0.5 7 -3.5
v -0.5 8 -2.5
v -0.5 8 -3.5
v -0.5 15 4.5
v -0.5 15 -4.5
v 0.5 0 4.5
v 0.5 0 -4.5
v 0.5 6 -2.5
v 0.5 6 -3.5
v 0.5 7 -2.5
v 0.5 7 -3.5
v 0.5 8 -2.5
v 0.5 8 -3.5
v 0.5 15 4.5
v 0.5 15 -4.5
v 1.5 7 -2.5
v 1.5 7 -3.5
v 1.5 8 -2.5
v 1.5 8 -3.5
v -0.5 0 4.5
v -0.5 15 4.5
v 0.5 0 4.5
v 0.5 15 4.5
v -1.5 7 -2.5
v -1.5 8 -2.5
v -0.5 7 -2.5
v -0.5 8 -2.5
v 0.5 7 -2.5
v 0.5 8 -2.5
v 1.5 7 -2.5
v 1.5 8 -2.5
v -1.5 7 -3.5
v -1.5 8 -3.5
v -0.5 7 -3.5
v -0.5 8 -3.5
v 0.5 7 -3.5
v 0.5 8 -3.5
v 1.5 7 -3.5
v 1.5 8 -3.5
v -0.5 0 -4.5
v -0.5 15 -4.5
v 0.5 0 -4.5
v 0.5 15 -4.5
v -0.5 0 4.5
v 0.5 0 4.5
v -0.5 0 -4.5
v 0.5 0 -4.5
v -1.5 7 -2.5
v -0.5 7 -2.5
v 0.5 7 -2.5
v 1.5 7 -2.5
v -1.5 7 -3.5
v -0.5 7 -3.5
v 0.5 7 -3.5
v 1.5 7 -3.5
v -1.5 8 -2.5
v -0.5 8 -2.5
v 0.5 8 -2.5
v 1.5 8 -2.5
v -1.5 8 -3.5
v -0.5 8 -3.5
v 0.5 8 -3.5
v 1.5 8 -3.5
v -0.5 15 4.5
v 0.5 15 4.5
v -0.5 15 -4.5
v 0.5 15 -4.5

# faces
f 3/2/1 2/2/1 1/2/1
f 4/2/1 2/2/1 3/2/1
f 7/1/1 6/1/1 5/1/1
f 8/1/1 6/1/1 7/1/1
f 9/1/1 7/1/1 5/1/1
f 9/3/1 8/3/1 7/3/1
f 10/1/1 6/1/1 8/1/1
f 10/3/1 8/3/1 9/3/1
f 11/1/1 9/1/1 5/1/1
f 12/1/1 6/1/1 10/1/1
f 13/1/1 11/1/1 5/1/1
f 13/1/1 12/1/1 11/1/1
f 14/1/1 6/1/1 12/1/1
f 14/1/1 12/1/1 13/1/1
f 15/1/2 16/1/2 17/1/2
f 17/1/2 16/1/2 18/1/2
f 15/1/2 17/1/2 19/1/2
f 17/3/2 18/3/2 19/3/2
f 18/1/2 16/1/2 20/1/2
f 19/3/2 18/3/2 20/3/2
f 15/1/2 19/1/2 21/1/2
f 20/1/2 16/1/2 22/1/2
f 15/1/2 21/1/2 23/1/2
f 21/1/2 22/1/2 23/1/2
f 22/1/2 16/1/2 24/1/2
f 23/1/2 22/1/2 24/1/2
f 25/2/2 26/2/2 27/2/2
f 27/2/2 26/2/2 28/2/2
f 31/1/3 30/1/3 29/1/3
f 32/1/3 30/1/3 31/1/3
f 35/2/3 34/2/3 33/2/3
f 36/2/3 34/2/3 35/2/3
f 39/2/3 38/2/3 37/2/3
f 40/2/3 38/2/3 39/2/3
f 41/2/4 42/2/4 43/2/4
f 43/2/4 42/2/4 44/2/4
f 45/2/4 46/2/4 47/2/4
f 47/2/4 46/2/4 48/2/4
f 49/1/4 50/1/4 51/1/4
f 51/1/4 50/1/4 52/1/4
f 55/1/5 54/1/5 53/1/5
f 56/1/5 54/1/5 55/1/5
f 61/2/5 58/2/5 57/2/5
f 62/2/5 58/2/5 61/2/5
f 63/2/5 60/2/5 59/2/5
f 64/2/5 60/2/5 63/2/5
f 65/2/6 66/2/6 69/2/6
f 69/2/6 66/2/6 70/2/6
f 67/2/6 68/2/6 71/2/6
f 71/2/6 68/2/6 72/2/6
f 73/1/6 74/1/6 75/1/6
f 75/1/6 74/1/6 76/1/6
