# MagicaVoxel @ Ephtracy

# group
g Right Corner

# material
mtllib Right Corner.mtl
usemtl palette

# normals
vn -1 0 0
vn 1 0 0
vn 0 0 1
vn 0 0 -1
vn 0 -1 0
vn 0 1 0

# texcoords
vt 0.974609 0.5
vt 0.978516 0.5
vt 0.982422 0.5

# verts
v -9.5 0 9.5
v -9.5 0 8.5
v -9.5 0 -9.5
v -9.5 1 8.5
v -9.5 1 5.5
v -9.5 1 -6.5
v -9.5 1 -9.5
v -9.5 2 6.5
v -9.5 2 5.5
v -9.5 2 -6.5
v -9.5 2 -7.5
v -9.5 3 7.5
v -9.5 3 6.5
v -9.5 3 -7.5
v -9.5 3 -8.5
v -9.5 18 7.5
v -9.5 18 6.5
v -9.5 18 -7.5
v -9.5 18 -8.5
v -9.5 19 6.5
v -9.5 19 5.5
v -9.5 19 -6.5
v -9.5 19 -7.5
v -9.5 20 9.5
v -9.5 20 8.5
v -9.5 20 5.5
v -9.5 20 -6.5
v -9.5 20 -9.5
v -9.5 21 8.5
v -9.5 21 -9.5
v 5.5 1 8.5
v 5.5 1 5.5
v 5.5 1 -6.5
v 5.5 1 -9.5
v 5.5 2 8.5
v 5.5 2 5.5
v 5.5 2 -6.5
v 5.5 2 -9.5
v 5.5 19 8.5
v 5.5 19 5.5
v 5.5 19 -6.5
v 5.5 19 -9.5
v 5.5 20 8.5
v 5.5 20 5.5
v 5.5 20 -6.5
v 5.5 20 -9.5
v 6.5 2 8.5
v 6.5 2 6.5
v 6.5 2 -7.5
v 6.5 2 -9.5
v 6.5 3 8.5
v 6.5 3 6.5
v 6.5 3 -7.5
v 6.5 3 -9.5
v 6.5 18 8.5
v 6.5 18 6.5
v 6.5 18 -7.5
v 6.5 18 -9.5
v 6.5 19 8.5
v 6.5 19 6.5
v 6.5 19 -7.5
v 6.5 19 -9.5
v 7.5 3 8.5
v 7.5 3 7.5
v 7.5 3 -8.5
v 7.5 3 -9.5
v 7.5 18 8.5
v 7.5 18 7.5
v 7.5 18 -8.5
v 7.5 18 -9.5
v 8.5 1 5.5
v 8.5 1 -6.5
v 8.5 2 6.5
v 8.5 2 5.5
v 8.5 2 -6.5
v 8.5 2 -7.5
v 8.5 3 7.5
v 8.5 3 6.5
v 8.5 3 -7.5
v 8.5 3 -8.5
v 8.5 18 7.5
v 8.5 18 6.5
v 8.5 18 -7.5
v 8.5 18 -8.5
v 8.5 19 6.5
v 8.5 19 5.5
v 8.5 19 -6.5
v 8.5 19 -7.5
v 8.5 20 5.5
v 8.5 20 -6.5
v -8.5 3 8.5
v -8.5 3 7.5
v -8.5 3 -8.5
v -8.5 3 -9.5
v -8.5 18 8.5
v -8.5 18 7.5
v -8.5 18 -8.5
v -8.5 18 -9.5
v -7.5 2 8.5
v -7.5 2 6.5
v -7.5 2 -7.5
v -7.5 2 -9.5
v -7.5 3 8.5
v -7.5 3 6.5
v -7.5 3 -7.5
v -7.5 3 -9.5
v -7.5 18 8.5
v -7.5 18 6.5
v -7.5 18 -7.5
v -7.5 18 -9.5
v -7.5 19 8.5
v -7.5 19 6.5
v -7.5 19 -7.5
v -7.5 19 -9.5
v -6.5 1 8.5
v -6.5 1 5.5
v -6.5 1 -6.5
v -6.5 1 -9.5
v -6.5 2 8.5
v -6.5 2 5.5
v -6.5 2 -6.5
v -6.5 2 -9.5
v -6.5 19 8.5
v -6.5 19 5.5
v -6.5 19 -6.5
v -6.5 19 -9.5
v -6.5 20 8.5
v -6.5 20 5.5
v -6.5 20 -6.5
v -6.5 20 -9.5
v 8.5 0 9.5
v 8.5 0 8.5
v 8.5 20 9.5
v 8.5 20 8.5
v 8.5 20 -9.5
v 8.5 21 8.5
v 8.5 21 -9.5
v 9.5 0 8.5
v 9.5 0 -9.5
v 9.5 20 8.5
v 9.5 20 -9.5
v -9.5 0 9.5
v -9.5 20 9.5
v 8.5 0 9.5
v 8.5 20 9.5
v -9.5 20 8.5
v -9.5 21 8.5
v 8.5 0 8.5
v 8.5 20 8.5
v 8.5 21 8.5
v 9.5 0 8.5
v 9.5 20 8.5
v -9.5 1 -6.5
v -9.5 2 -6.5
v -9.5 19 -6.5
v -9.5 20 -6.5
v -6.5 1 -6.5
v -6.5 2 -6.5
v -6.5 19 -6.5
v -6.5 20 -6.5
v 5.5 1 -6.5
v 5.5 2 -6.5
v 5.5 19 -6.5
v 5.5 20 -6.5
v 8.5 1 -6.5
v 8.5 2 -6.5
v 8.5 19 -6.5
v 8.5 20 -6.5
v -9.5 2 -7.5
v -9.5 3 -7.5
v -9.5 18 -7.5
v -9.5 19 -7.5
v -7.5 2 -7.5
v -7.5 3 -7.5
v -7.5 18 -7.5
v -7.5 19 -7.5
v 6.5 2 -7.5
v 6.5 3 -7.5
v 6.5 18 -7.5
v 6.5 19 -7.5
v 8.5 2 -7.5
v 8.5 3 -7.5
v 8.5 18 -7.5
v 8.5 19 -7.5
v -9.5 3 -8.5
v -9.5 18 -8.5
v -8.5 3 -8.5
v -8.5 18 -8.5
v 7.5 3 -8.5
v 7.5 18 -8.5
v 8.5 3 -8.5
v 8.5 18 -8.5
v -8.5 3 8.5
v -8.5 18 8.5
v -7.5 2 8.5
v -7.5 3 8.5
v -7.5 18 8.5
v -7.5 19 8.5
v -6.5 1 8.5
v -6.5 2 8.5
v -6.5 19 8.5
v -6.5 20 8.5
v 5.5 1 8.5
v 5.5 2 8.5
v 5.5 19 8.5
v 5.5 20 8.5
v 6.5 2 8.5
v 6.5 3 8.5
v 6.5 18 8.5
v 6.5 19 8.5
v 7.5 3 8.5
v 7.5 18 8.5
v -9.5 3 7.5
v -9.5 18 7.5
v -8.5 3 7.5
v -8.5 18 7.5
v 7.5 3 7.5
v 7.5 18 7.5
v 8.5 3 7.5
v 8.5 18 7.5
v -9.5 2 6.5
v -9.5 3 6.5
v -9.5 18 6.5
v -9.5 19 6.5
v -7.5 2 6.5
v -7.5 3 6.5
v -7.5 18 6.5
v -7.5 19 6.5
v 6.5 2 6.5
v 6.5 3 6.5
v 6.5 18 6.5
v 6.5 19 6.5
v 8.5 2 6.5
v 8.5 3 6.5
v 8.5 18 6.5
v 8.5 19 6.5
v -9.5 1 5.5
v -9.5 2 5.5
v -9.5 19 5.5
v -9.5 20 5.5
v -6.5 1 5.5
v -6.5 2 5.5
v -6.5 19 5.5
v -6.5 20 5.5
v 5.5 1 5.5
v 5.5 2 5.5
v 5.5 19 5.5
v 5.5 20 5.5
v 8.5 1 5.5
v 8.5 2 5.5
v 8.5 19 5.5
v 8.5 20 5.5
v -9.5 0 -9.5
v -9.5 1 -9.5
v -9.5 20 -9.5
v -9.5 21 -9.5
v -8.5 3 -9.5
v -8.5 18 -9.5
v -7.5 2 -9.5
v -7.5 3 -9.5
v -7.5 18 -9.5
v -7.5 19 -9.5
v -6.5 1 -9.5
v -6.5 2 -9.5
v -6.5 19 -9.5
v -6.5 20 -9.5
v 5.5 1 -9.5
v 5.5 2 -9.5
v 5.5 19 -9.5
v 5.5 20 -9.5
v 6.5 2 -9.5
v 6.5 3 -9.5
v 6.5 18 -9.5
v 6.5 19 -9.5
v 7.5 3 -9.5
v 7.5 18 -9.5
v 8.5 0 -9.5
v 8.5 1 -9.5
v 8.5 20 -9.5
v 8.5 21 -9.5
v 9.5 0 -9.5
v 9.5 20 -9.5
v -9.5 0 9.5
v 8.5 0 9.5
v -9.5 0 8.5
v 8.5 0 8.5
v 9.5 0 8.5
v -9.5 0 -9.5
v 8.5 0 -9.5
v 9.5 0 -9.5
v -8.5 18 8.5
v -7.5 18 8.5
v 6.5 18 8.5
v 7.5 18 8.5
v -9.5 18 7.5
v -8.5 18 7.5
v 7.5 18 7.5
v 8.5 18 7.5
v -9.5 18 6.5
v -7.5 18 6.5
v 6.5 18 6.5
v 8.5 18 6.5
v -9.5 18 -7.5
v -7.5 18 -7.5
v 6.5 18 -7.5
v 8.5 18 -7.5
v -9.5 18 -8.5
v -8.5 18 -8.5
v 7.5 18 -8.5
v 8.5 18 -8.5
v -8.5 18 -9.5
v -7.5 18 -9.5
v 6.5 18 -9.5
v 7.5 18 -9.5
v -7.5 19 8.5
v -6.5 19 8.5
v 5.5 19 8.5
v 6.5 19 8.5
v -9.5 19 6.5
v -7.5 19 6.5
v 6.5 19 6.5
v 8.5 19 6.5
v -9.5 19 5.5
v -6.5 19 5.5
v 5.5 19 5.5
v 8.5 19 5.5
v -9.5 19 -6.5
v -6.5 19 -6.5
v 5.5 19 -6.5
v 8.5 19 -6.5
v -9.5 19 -7.5
v -7.5 19 -7.5
v 6.5 19 -7.5
v 8.5 19 -7.5
v -7.5 19 -9.5
v -6.5 19 -9.5
v 5.5 19 -9.5
v 6.5 19 -9.5
v -6.5 20 8.5
v 5.5 20 8.5
v -9.5 20 5.5
v -6.5 20 5.5
v 5.5 20 5.5
v 8.5 20 5.5
v -9.5 20 -6.5
v -6.5 20 -6.5
v 5.5 20 -6.5
v 8.5 20 -6.5
v -6.5 20 -9.5
v 5.5 20 -9.5
v -6.5 1 8.5
v 5.5 1 8.5
v -9.5 1 5.5
v -6.5 1 5.5
v 5.5 1 5.5
v 8.5 1 5.5
v -9.5 1 -6.5
v -6.5 1 -6.5
v 5.5 1 -6.5
v 8.5 1 -6.5
v -6.5 1 -9.5
v 5.5 1 -9.5
v -7.5 2 8.5
v -6.5 2 8.5
v 5.5 2 8.5
v 6.5 2 8.5
v -9.5 2 6.5
v -7.5 2 6.5
v 6.5 2 6.5
v 8.5 2 6.5
v -9.5 2 5.5
v -6.5 2 5.5
v 5.5 2 5.5
v 8.5 2 5.5
v -9.5 2 -6.5
v -6.5 2 -6.5
v 5.5 2 -6.5
v 8.5 2 -6.5
v -9.5 2 -7.5
v -7.5 2 -7.5
v 6.5 2 -7.5
v 8.5 2 -7.5
v -7.5 2 -9.5
v -6.5 2 -9.5
v 5.5 2 -9.5
v 6.5 2 -9.5
v -8.5 3 8.5
v -7.5 3 8.5
v 6.5 3 8.5
v 7.5 3 8.5
v -9.5 3 7.5
v -8.5 3 7.5
v 7.5 3 7.5
v 8.5 3 7.5
v -9.5 3 6.5
v -7.5 3 6.5
v 6.5 3 6.5
v 8.5 3 6.5
v -9.5 3 -7.5
v -7.5 3 -7.5
v 6.5 3 -7.5
v 8.5 3 -7.5
v -9.5 3 -8.5
v -8.5 3 -8.5
v 7.5 3 -8.5
v 8.5 3 -8.5
v -8.5 3 -9.5
v -7.5 3 -9.5
v 6.5 3 -9.5
v 7.5 3 -9.5
v -9.5 20 9.5
v 8.5 20 9.5
v -9.5 20 8.5
v 8.5 20 8.5
v 9.5 20 8.5
v 8.5 20 -9.5
v 9.5 20 -9.5
v -9.5 21 8.5
v 8.5 21 8.5
v -9.5 21 -9.5
v 8.5 21 -9.5

# faces
f 4/3/1 2/3/1 1/3/1
f 4/1/1 3/1/1 2/1/1
f 5/1/1 3/1/1 4/1/1
f 6/1/1 3/1/1 5/1/1
f 7/1/1 3/1/1 6/1/1
f 8/2/1 5/2/1 4/2/1
f 9/2/1 5/2/1 8/2/1
f 10/2/1 7/2/1 6/2/1
f 11/2/1 7/2/1 10/2/1
f 12/2/1 8/2/1 4/2/1
f 13/2/1 8/2/1 12/2/1
f 14/2/1 7/2/1 11/2/1
f 15/2/1 7/2/1 14/2/1
f 16/2/1 12/2/1 4/2/1
f 19/2/1 7/2/1 15/2/1
f 20/2/1 17/2/1 16/2/1
f 23/2/1 19/2/1 18/2/1
f 24/3/1 4/3/1 1/3/1
f 25/2/1 21/2/1 20/2/1
f 25/3/1 4/3/1 24/3/1
f 25/2/1 16/2/1 4/2/1
f 25/2/1 20/2/1 16/2/1
f 26/2/1 21/2/1 25/2/1
f 27/2/1 23/2/1 22/2/1
f 28/2/1 19/2/1 23/2/1
f 28/2/1 7/2/1 19/2/1
f 28/2/1 23/2/1 27/2/1
f 29/3/1 26/3/1 25/3/1
f 29/3/1 27/3/1 26/3/1
f 29/3/1 28/3/1 27/3/1
f 30/3/1 28/3/1 29/3/1
f 35/2/1 32/2/1 31/2/1
f 36/2/1 32/2/1 35/2/1
f 37/2/1 34/2/1 33/2/1
f 38/2/1 34/2/1 37/2/1
f 43/2/1 40/2/1 39/2/1
f 44/2/1 40/2/1 43/2/1
f 45/2/1 42/2/1 41/2/1
f 46/2/1 42/2/1 45/2/1
f 51/2/1 48/2/1 47/2/1
f 52/2/1 48/2/1 51/2/1
f 53/2/1 50/2/1 49/2/1
f 54/2/1 50/2/1 53/2/1
f 59/2/1 56/2/1 55/2/1
f 60/2/1 56/2/1 59/2/1
f 61/2/1 58/2/1 57/2/1
f 62/2/1 58/2/1 61/2/1
f 67/2/1 64/2/1 63/2/1
f 68/2/1 64/2/1 67/2/1
f 69/2/1 66/2/1 65/2/1
f 70/2/1 66/2/1 69/2/1
f 74/3/1 72/3/1 71/3/1
f 75/3/1 72/3/1 74/3/1
f 78/3/1 74/3/1 73/3/1
f 78/3/1 76/3/1 75/3/1
f 78/3/1 75/3/1 74/3/1
f 79/3/1 76/3/1 78/3/1
f 81/3/1 78/3/1 77/3/1
f 81/3/1 80/3/1 79/3/1
f 81/3/1 79/3/1 78/3/1
f 82/3/1 80/3/1 81/3/1
f 83/3/1 80/3/1 82/3/1
f 84/3/1 80/3/1 83/3/1
f 85/3/1 83/3/1 82/3/1
f 86/3/1 83/3/1 85/3/1
f 87/3/1 83/3/1 86/3/1
f 88/3/1 83/3/1 87/3/1
f 89/3/1 87/3/1 86/3/1
f 90/3/1 87/3/1 89/3/1
f 91/2/2 92/2/2 95/2/2
f 95/2/2 92/2/2 96/2/2
f 93/2/2 94/2/2 97/2/2
f 97/2/2 94/2/2 98/2/2
f 99/2/2 100/2/2 103/2/2
f 103/2/2 100/2/2 104/2/2
f 101/2/2 102/2/2 105/2/2
f 105/2/2 102/2/2 106/2/2
f 107/2/2 108/2/2 111/2/2
f 111/2/2 108/2/2 112/2/2
f 109/2/2 110/2/2 113/2/2
f 113/2/2 110/2/2 114/2/2
f 115/2/2 116/2/2 119/2/2
f 119/2/2 116/2/2 120/2/2
f 117/2/2 118/2/2 121/2/2
f 121/2/2 118/2/2 122/2/2
f 123/2/2 124/2/2 127/2/2
f 127/2/2 124/2/2 128/2/2
f 125/2/2 126/2/2 129/2/2
f 129/2/2 126/2/2 130/2/2
f 131/3/2 132/3/2 133/3/2
f 133/3/2 132/3/2 134/3/2
f 134/3/2 135/3/2 136/3/2
f 136/3/2 135/3/2 137/3/2
f 138/3/2 139/3/2 140/3/2
f 140/3/2 139/3/2 141/3/2
f 144/3/3 143/3/3 142/3/3
f 145/3/3 143/3/3 144/3/3
f 149/3/3 147/3/3 146/3/3
f 150/3/3 147/3/3 149/3/3
f 151/3/3 149/3/3 148/3/3
f 152/3/3 149/3/3 151/3/3
f 157/2/3 154/2/3 153/2/3
f 158/2/3 154/2/3 157/2/3
f 159/2/3 156/2/3 155/2/3
f 160/2/3 156/2/3 159/2/3
f 165/2/3 162/2/3 161/2/3
f 166/2/3 162/2/3 165/2/3
f 167/2/3 164/2/3 163/2/3
f 168/2/3 164/2/3 167/2/3
f 173/2/3 170/2/3 169/2/3
f 174/2/3 170/2/3 173/2/3
f 175/2/3 172/2/3 171/2/3
f 176/2/3 172/2/3 175/2/3
f 181/2/3 178/2/3 177/2/3
f 182/2/3 178/2/3 181/2/3
f 183/2/3 180/2/3 179/2/3
f 184/2/3 180/2/3 183/2/3
f 187/2/3 186/2/3 185/2/3
f 188/2/3 186/2/3 187/2/3
f 191/2/3 190/2/3 189/2/3
f 192/2/3 190/2/3 191/2/3
f 193/3/4 194/3/4 196/3/4
f 196/3/4 194/3/4 197/3/4
f 195/3/4 196/3/4 200/3/4
f 197/3/4 198/3/4 200/3/4
f 196/3/4 197/3/4 200/3/4
f 200/3/4 198/3/4 201/3/4
f 199/3/4 200/3/4 203/3/4
f 201/3/4 202/3/4 203/3/4
f 200/3/4 201/3/4 203/3/4
f 203/3/4 202/3/4 204/3/4
f 204/3/4 202/3/4 205/3/4
f 205/3/4 202/3/4 206/3/4
f 204/3/4 205/3/4 207/3/4
f 207/3/4 205/3/4 208/3/4
f 208/3/4 205/3/4 209/3/4
f 209/3/4 205/3/4 210/3/4
f 208/3/4 209/3/4 211/3/4
f 211/3/4 209/3/4 212/3/4
f 213/2/4 214/2/4 215/2/4
f 215/2/4 214/2/4 216/2/4
f 217/2/4 218/2/4 219/2/4
f 219/2/4 218/2/4 220/2/4
f 221/2/4 222/2/4 225/2/4
f 225/2/4 222/2/4 226/2/4
f 223/2/4 224/2/4 227/2/4
f 227/2/4 224/2/4 228/2/4
f 229/2/4 230/2/4 233/2/4
f 233/2/4 230/2/4 234/2/4
f 231/2/4 232/2/4 235/2/4
f 235/2/4 232/2/4 236/2/4
f 237/2/4 238/2/4 241/2/4
f 241/2/4 238/2/4 242/2/4
f 239/2/4 240/2/4 243/2/4
f 243/2/4 240/2/4 244/2/4
f 245/2/4 246/2/4 249/2/4
f 249/2/4 246/2/4 250/2/4
f 247/2/4 248/2/4 251/2/4
f 251/2/4 248/2/4 252/2/4
f 254/2/4 255/2/4 257/2/4
f 257/2/4 255/2/4 258/2/4
f 254/2/4 257/2/4 259/2/4
f 259/2/4 257/2/4 260/2/4
f 258/2/4 255/2/4 261/2/4
f 261/2/4 255/2/4 262/2/4
f 253/1/4 254/1/4 263/1/4
f 254/2/4 259/2/4 263/2/4
f 263/2/4 259/2/4 264/2/4
f 262/2/4 255/2/4 265/2/4
f 255/3/4 256/3/4 266/3/4
f 265/2/4 255/2/4 266/2/4
f 253/1/4 263/1/4 267/1/4
f 266/3/4 256/3/4 270/3/4
f 267/2/4 268/2/4 271/2/4
f 269/2/4 270/2/4 274/2/4
f 271/2/4 272/2/4 275/2/4
f 273/2/4 274/2/4 276/2/4
f 253/1/4 267/1/4 277/1/4
f 271/2/4 275/2/4 278/2/4
f 277/1/4 267/1/4 278/1/4
f 275/2/4 276/2/4 278/2/4
f 267/2/4 271/2/4 278/2/4
f 276/2/4 274/2/4 279/2/4
f 278/2/4 276/2/4 279/2/4
f 270/3/4 256/3/4 279/3/4
f 274/2/4 270/2/4 279/2/4
f 279/3/4 256/3/4 280/3/4
f 277/3/4 278/3/4 281/3/4
f 278/3/4 279/3/4 281/3/4
f 281/3/4 279/3/4 282/3/4
f 285/3/5 284/3/5 283/3/5
f 286/3/5 284/3/5 285/3/5
f 288/1/5 286/1/5 285/1/5
f 289/3/5 287/3/5 286/3/5
f 289/1/5 286/1/5 288/1/5
f 290/3/5 287/3/5 289/3/5
f 296/2/5 292/2/5 291/2/5
f 297/2/5 294/2/5 293/2/5
f 299/2/5 296/2/5 295/2/5
f 300/2/5 292/2/5 296/2/5
f 300/2/5 296/2/5 299/2/5
f 301/2/5 298/2/5 297/2/5
f 301/2/5 297/2/5 293/2/5
f 302/2/5 298/2/5 301/2/5
f 307/2/5 304/2/5 303/2/5
f 308/2/5 304/2/5 307/2/5
f 309/2/5 306/2/5 305/2/5
f 310/2/5 306/2/5 309/2/5
f 311/2/5 304/2/5 308/2/5
f 312/2/5 304/2/5 311/2/5
f 313/2/5 309/2/5 305/2/5
f 314/2/5 309/2/5 313/2/5
f 320/2/5 316/2/5 315/2/5
f 321/2/5 318/2/5 317/2/5
f 323/2/5 320/2/5 319/2/5
f 324/2/5 316/2/5 320/2/5
f 324/2/5 320/2/5 323/2/5
f 325/2/5 322/2/5 321/2/5
f 325/2/5 321/2/5 317/2/5
f 326/2/5 322/2/5 325/2/5
f 331/2/5 328/2/5 327/2/5
f 332/2/5 328/2/5 331/2/5
f 333/2/5 330/2/5 329/2/5
f 334/2/5 330/2/5 333/2/5
f 335/2/5 328/2/5 332/2/5
f 336/2/5 328/2/5 335/2/5
f 337/2/5 333/2/5 329/2/5
f 338/2/5 333/2/5 337/2/5
f 342/3/5 340/3/5 339/3/5
f 343/3/5 340/3/5 342/3/5
f 345/3/5 342/3/5 341/3/5
f 345/3/5 344/3/5 343/3/5
f 345/3/5 343/3/5 342/3/5
f 346/3/5 344/3/5 345/3/5
f 347/3/5 344/3/5 346/3/5
f 348/3/5 344/3/5 347/3/5
f 349/3/5 347/3/5 346/3/5
f 350/3/5 347/3/5 349/3/5
f 351/1/6 352/1/6 354/1/6
f 354/1/6 352/1/6 355/1/6
f 353/1/6 354/1/6 357/1/6
f 355/1/6 356/1/6 357/1/6
f 354/1/6 355/1/6 357/1/6
f 357/1/6 356/1/6 358/1/6
f 358/1/6 356/1/6 359/1/6
f 359/1/6 356/1/6 360/1/6
f 358/1/6 359/1/6 361/1/6
f 361/1/6 359/1/6 362/1/6
f 363/2/6 364/2/6 368/2/6
f 365/2/6 366/2/6 369/2/6
f 367/2/6 368/2/6 371/2/6
f 368/2/6 364/2/6 372/2/6
f 371/2/6 368/2/6 372/2/6
f 369/2/6 370/2/6 373/2/6
f 365/2/6 369/2/6 373/2/6
f 373/2/6 370/2/6 374/2/6
f 375/2/6 376/2/6 379/2/6
f 379/2/6 376/2/6 380/2/6
f 377/2/6 378/2/6 381/2/6
f 381/2/6 378/2/6 382/2/6
f 380/2/6 376/2/6 383/2/6
f 383/2/6 376/2/6 384/2/6
f 377/2/6 381/2/6 385/2/6
f 385/2/6 381/2/6 386/2/6
f 387/2/6 388/2/6 392/2/6
f 389/2/6 390/2/6 393/2/6
f 391/2/6 392/2/6 395/2/6
f 392/2/6 388/2/6 396/2/6
f 395/2/6 392/2/6 396/2/6
f 393/2/6 394/2/6 397/2/6
f 389/2/6 393/2/6 397/2/6
f 397/2/6 394/2/6 398/2/6
f 399/2/6 400/2/6 403/2/6
f 403/2/6 400/2/6 404/2/6
f 401/2/6 402/2/6 405/2/6
f 405/2/6 402/2/6 406/2/6
f 404/2/6 400/2/6 407/2/6
f 407/2/6 400/2/6 408/2/6
f 401/2/6 405/2/6 409/2/6
f 409/2/6 405/2/6 410/2/6
f 411/3/6 412/3/6 413/3/6
f 413/3/6 412/3/6 414/3/6
f 414/3/6 415/3/6 416/3/6
f 416/3/6 415/3/6 417/3/6
f 418/3/6 419/3/6 420/3/6
f 420/3/6 419/3/6 421/3/6
