# MagicaVoxel @ Ephtracy

# group
g T-Corridor

# material
mtllib T-Corridor.mtl
usemtl palette

# normals
vn -1 0 0
vn 1 0 0
vn 0 0 1
vn 0 0 -1
vn 0 -1 0
vn 0 1 0

# texcoords
vt 0.974609 0.5
vt 0.978516 0.5
vt 0.982422 0.5

# verts
v -9.5 0 9
v -9.5 0 -9
v -9.5 20 9
v -9.5 20 -9
v -8.5 20 9
v -8.5 20 -9
v -8.5 21 9
v -8.5 21 -9
v 6.5 1 9
v 6.5 1 6
v 6.5 1 -6
v 6.5 1 -9
v 6.5 2 9
v 6.5 2 6
v 6.5 2 -6
v 6.5 2 -9
v 6.5 19 9
v 6.5 19 6
v 6.5 19 -6
v 6.5 19 -9
v 6.5 20 9
v 6.5 20 6
v 6.5 20 -6
v 6.5 20 -9
v 7.5 2 9
v 7.5 2 7
v 7.5 2 -7
v 7.5 2 -9
v 7.5 3 9
v 7.5 3 7
v 7.5 3 -7
v 7.5 3 -9
v 7.5 18 9
v 7.5 18 7
v 7.5 18 -7
v 7.5 18 -9
v 7.5 19 9
v 7.5 19 7
v 7.5 19 -7
v 7.5 19 -9
v 8.5 3 9
v 8.5 3 8
v 8.5 3 -8
v 8.5 3 -9
v 8.5 18 9
v 8.5 18 8
v 8.5 18 -8
v 8.5 18 -9
v -8.5 1 6
v -8.5 1 -6
v -8.5 2 7
v -8.5 2 6
v -8.5 2 -6
v -8.5 2 -7
v -8.5 3 8
v -8.5 3 7
v -8.5 3 -7
v -8.5 3 -8
v -8.5 18 8
v -8.5 18 7
v -8.5 18 -7
v -8.5 18 -8
v -8.5 19 7
v -8.5 19 6
v -8.5 19 -6
v -8.5 19 -7
v -8.5 20 6
v -8.5 20 -6
v -7.5 3 9
v -7.5 3 8
v -7.5 3 -8
v -7.5 3 -9
v -7.5 18 9
v -7.5 18 8
v -7.5 18 -8
v -7.5 18 -9
v -6.5 2 9
v -6.5 2 7
v -6.5 2 -7
v -6.5 2 -9
v -6.5 3 9
v -6.5 3 7
v -6.5 3 -7
v -6.5 3 -9
v -6.5 18 9
v -6.5 18 7
v -6.5 18 -7
v -6.5 18 -9
v -6.5 19 9
v -6.5 19 7
v -6.5 19 -7
v -6.5 19 -9
v -5.5 1 9
v -5.5 1 6
v -5.5 1 -6
v -5.5 1 -9
v -5.5 2 9
v -5.5 2 6
v -5.5 2 -6
v -5.5 2 -9
v -5.5 19 9
v -5.5 19 6
v -5.5 19 -6
v -5.5 19 -9
v -5.5 20 9
v -5.5 20 6
v -5.5 20 -6
v -5.5 20 -9
v 9.5 0 9
v 9.5 0 -9
v 9.5 1 9
v 9.5 1 6
v 9.5 1 -6
v 9.5 1 -9
v 9.5 2 7
v 9.5 2 6
v 9.5 2 -6
v 9.5 2 -7
v 9.5 3 8
v 9.5 3 7
v 9.5 3 -7
v 9.5 3 -8
v 9.5 18 8
v 9.5 18 7
v 9.5 18 -7
v 9.5 18 -8
v 9.5 19 7
v 9.5 19 6
v 9.5 19 -6
v 9.5 19 -7
v 9.5 20 9
v 9.5 20 6
v 9.5 20 -6
v 9.5 20 -9
v 9.5 21 9
v 9.5 21 -9
v -9.5 0 9
v -9.5 20 9
v -8.5 0 9
v -8.5 1 9
v -8.5 20 9
v -8.5 21 9
v -7.5 3 9
v -7.5 18 9
v -6.5 2 9
v -6.5 3 9
v -6.5 18 9
v -6.5 19 9
v -5.5 1 9
v -5.5 2 9
v -5.5 19 9
v -5.5 20 9
v 6.5 1 9
v 6.5 2 9
v 6.5 19 9
v 6.5 20 9
v 7.5 2 9
v 7.5 3 9
v 7.5 18 9
v 7.5 19 9
v 8.5 3 9
v 8.5 18 9
v 9.5 0 9
v 9.5 1 9
v 9.5 20 9
v 9.5 21 9
v -8.5 1 -6
v -8.5 2 -6
v -8.5 19 -6
v -8.5 20 -6
v -5.5 1 -6
v -5.5 2 -6
v -5.5 19 -6
v -5.5 20 -6
v 6.5 1 -6
v 6.5 2 -6
v 6.5 19 -6
v 6.5 20 -6
v 9.5 1 -6
v 9.5 2 -6
v 9.5 19 -6
v 9.5 20 -6
v -8.5 2 -7
v -8.5 3 -7
v -8.5 18 -7
v -8.5 19 -7
v -6.5 2 -7
v -6.5 3 -7
v -6.5 18 -7
v -6.5 19 -7
v 7.5 2 -7
v 7.5 3 -7
v 7.5 18 -7
v 7.5 19 -7
v 9.5 2 -7
v 9.5 3 -7
v 9.5 18 -7
v 9.5 19 -7
v -8.5 3 -8
v -8.5 18 -8
v -7.5 3 -8
v -7.5 18 -8
v 8.5 3 -8
v 8.5 18 -8
v 9.5 3 -8
v 9.5 18 -8
v -8.5 3 8
v -8.5 18 8
v -7.5 3 8
v -7.5 18 8
v 8.5 3 8
v 8.5 18 8
v 9.5 3 8
v 9.5 18 8
v -8.5 2 7
v -8.5 3 7
v -8.5 18 7
v -8.5 19 7
v -6.5 2 7
v -6.5 3 7
v -6.5 18 7
v -6.5 19 7
v 7.5 2 7
v 7.5 3 7
v 7.5 18 7
v 7.5 19 7
v 9.5 2 7
v 9.5 3 7
v 9.5 18 7
v 9.5 19 7
v -8.5 1 6
v -8.5 2 6
v -8.5 19 6
v -8.5 20 6
v -5.5 1 6
v -5.5 2 6
v -5.5 19 6
v -5.5 20 6
v 6.5 1 6
v 6.5 2 6
v 6.5 19 6
v 6.5 20 6
v 9.5 1 6
v 9.5 2 6
v 9.5 19 6
v 9.5 20 6
v -9.5 0 -9
v -9.5 20 -9
v -8.5 0 -9
v -8.5 1 -9
v -8.5 20 -9
v -8.5 21 -9
v -7.5 3 -9
v -7.5 18 -9
v -6.5 2 -9
v -6.5 3 -9
v -6.5 18 -9
v -6.5 19 -9
v -5.5 1 -9
v -5.5 2 -9
v -5.5 19 -9
v -5.5 20 -9
v 6.5 1 -9
v 6.5 2 -9
v 6.5 19 -9
v 6.5 20 -9
v 7.5 2 -9
v 7.5 3 -9
v 7.5 18 -9
v 7.5 19 -9
v 8.5 3 -9
v 8.5 18 -9
v 9.5 0 -9
v 9.5 1 -9
v 9.5 20 -9
v 9.5 21 -9
v -9.5 0 9
v -8.5 0 9
v 9.5 0 9
v -9.5 0 -9
v -8.5 0 -9
v 9.5 0 -9
v -7.5 18 9
v -6.5 18 9
v 7.5 18 9
v 8.5 18 9
v -8.5 18 8
v -7.5 18 8
v 8.5 18 8
v 9.5 18 8
v -8.5 18 7
v -6.5 18 7
v 7.5 18 7
v 9.5 18 7
v -8.5 18 -7
v -6.5 18 -7
v 7.5 18 -7
v 9.5 18 -7
v -8.5 18 -8
v -7.5 18 -8
v 8.5 18 -8
v 9.5 18 -8
v -7.5 18 -9
v -6.5 18 -9
v 7.5 18 -9
v 8.5 18 -9
v -6.5 19 9
v -5.5 19 9
v 6.5 19 9
v 7.5 19 9
v -8.5 19 7
v -6.5 19 7
v 7.5 19 7
v 9.5 19 7
v -8.5 19 6
v -5.5 19 6
v 6.5 19 6
v 9.5 19 6
v -8.5 19 -6
v -5.5 19 -6
v 6.5 19 -6
v 9.5 19 -6
v -8.5 19 -7
v -6.5 19 -7
v 7.5 19 -7
v 9.5 19 -7
v -6.5 19 -9
v -5.5 19 -9
v 6.5 19 -9
v 7.5 19 -9
v -5.5 20 9
v 6.5 20 9
v -8.5 20 6
v -5.5 20 6
v 6.5 20 6
v 9.5 20 6
v -8.5 20 -6
v -5.5 20 -6
v 6.5 20 -6
v 9.5 20 -6
v -5.5 20 -9
v 6.5 20 -9
v -5.5 1 9
v 6.5 1 9
v -8.5 1 6
v -5.5 1 6
v 6.5 1 6
v 9.5 1 6
v -8.5 1 -6
v -5.5 1 -6
v 6.5 1 -6
v 9.5 1 -6
v -5.5 1 -9
v 6.5 1 -9
v -6.5 2 9
v -5.5 2 9
v 6.5 2 9
v 7.5 2 9
v -8.5 2 7
v -6.5 2 7
v 7.5 2 7
v 9.5 2 7
v -8.5 2 6
v -5.5 2 6
v 6.5 2 6
v 9.5 2 6
v -8.5 2 -6
v -5.5 2 -6
v 6.5 2 -6
v 9.5 2 -6
v -8.5 2 -7
v -6.5 2 -7
v 7.5 2 -7
v 9.5 2 -7
v -6.5 2 -9
v -5.5 2 -9
v 6.5 2 -9
v 7.5 2 -9
v -7.5 3 9
v -6.5 3 9
v 7.5 3 9
v 8.5 3 9
v -8.5 3 8
v -7.5 3 8
v 8.5 3 8
v 9.5 3 8
v -8.5 3 7
v -6.5 3 7
v 7.5 3 7
v 9.5 3 7
v -8.5 3 -7
v -6.5 3 -7
v 7.5 3 -7
v 9.5 3 -7
v -8.5 3 -8
v -7.5 3 -8
v 8.5 3 -8
v 9.5 3 -8
v -7.5 3 -9
v -6.5 3 -9
v 7.5 3 -9
v 8.5 3 -9
v -9.5 20 9
v -8.5 20 9
v -9.5 20 -9
v -8.5 20 -9
v -8.5 21 9
v 9.5 21 9
v -8.5 21 -9
v 9.5 21 -9

# faces
f 3/3/1 2/3/1 1/3/1
f 4/3/1 2/3/1 3/3/1
f 7/3/1 6/3/1 5/3/1
f 8/3/1 6/3/1 7/3/1
f 13/2/1 10/2/1 9/2/1
f 14/2/1 10/2/1 13/2/1
f 15/2/1 12/2/1 11/2/1
f 16/2/1 12/2/1 15/2/1
f 21/2/1 18/2/1 17/2/1
f 22/2/1 18/2/1 21/2/1
f 23/2/1 20/2/1 19/2/1
f 24/2/1 20/2/1 23/2/1
f 29/2/1 26/2/1 25/2/1
f 30/2/1 26/2/1 29/2/1
f 31/2/1 28/2/1 27/2/1
f 32/2/1 28/2/1 31/2/1
f 37/2/1 34/2/1 33/2/1
f 38/2/1 34/2/1 37/2/1
f 39/2/1 36/2/1 35/2/1
f 40/2/1 36/2/1 39/2/1
f 45/2/1 42/2/1 41/2/1
f 46/2/1 42/2/1 45/2/1
f 47/2/1 44/2/1 43/2/1
f 48/2/1 44/2/1 47/2/1
f 49/3/2 50/3/2 52/3/2
f 52/3/2 50/3/2 53/3/2
f 51/3/2 52/3/2 56/3/2
f 53/3/2 54/3/2 56/3/2
f 52/3/2 53/3/2 56/3/2
f 56/3/2 54/3/2 57/3/2
f 55/3/2 56/3/2 59/3/2
f 57/3/2 58/3/2 59/3/2
f 56/3/2 57/3/2 59/3/2
f 59/3/2 58/3/2 60/3/2
f 60/3/2 58/3/2 61/3/2
f 61/3/2 58/3/2 62/3/2
f 60/3/2 61/3/2 63/3/2
f 63/3/2 61/3/2 64/3/2
f 64/3/2 61/3/2 65/3/2
f 65/3/2 61/3/2 66/3/2
f 64/3/2 65/3/2 67/3/2
f 67/3/2 65/3/2 68/3/2
f 69/2/2 70/2/2 73/2/2
f 73/2/2 70/2/2 74/2/2
f 71/2/2 72/2/2 75/2/2
f 75/2/2 72/2/2 76/2/2
f 77/2/2 78/2/2 81/2/2
f 81/2/2 78/2/2 82/2/2
f 79/2/2 80/2/2 83/2/2
f 83/2/2 80/2/2 84/2/2
f 85/2/2 86/2/2 89/2/2
f 89/2/2 86/2/2 90/2/2
f 87/2/2 88/2/2 91/2/2
f 91/2/2 88/2/2 92/2/2
f 93/2/2 94/2/2 97/2/2
f 97/2/2 94/2/2 98/2/2
f 95/2/2 96/2/2 99/2/2
f 99/2/2 96/2/2 100/2/2
f 101/2/2 102/2/2 105/2/2
f 105/2/2 102/2/2 106/2/2
f 103/2/2 104/2/2 107/2/2
f 107/2/2 104/2/2 108/2/2
f 109/1/2 110/1/2 111/1/2
f 111/1/2 110/1/2 112/1/2
f 112/1/2 110/1/2 113/1/2
f 113/1/2 110/1/2 114/1/2
f 111/2/2 112/2/2 115/2/2
f 115/2/2 112/2/2 116/2/2
f 113/2/2 114/2/2 117/2/2
f 117/2/2 114/2/2 118/2/2
f 111/2/2 115/2/2 119/2/2
f 119/2/2 115/2/2 120/2/2
f 118/2/2 114/2/2 121/2/2
f 121/2/2 114/2/2 122/2/2
f 111/2/2 119/2/2 123/2/2
f 122/2/2 114/2/2 126/2/2
f 123/2/2 124/2/2 127/2/2
f 125/2/2 126/2/2 130/2/2
f 127/2/2 128/2/2 131/2/2
f 111/2/2 123/2/2 131/2/2
f 123/2/2 127/2/2 131/2/2
f 131/2/2 128/2/2 132/2/2
f 129/2/2 130/2/2 133/2/2
f 130/2/2 126/2/2 134/2/2
f 126/2/2 114/2/2 134/2/2
f 133/2/2 130/2/2 134/2/2
f 131/3/2 132/3/2 135/3/2
f 132/3/2 133/3/2 135/3/2
f 133/3/2 134/3/2 135/3/2
f 135/3/2 134/3/2 136/3/2
f 139/3/3 138/3/3 137/3/3
f 140/3/3 138/3/3 139/3/3
f 141/3/3 138/3/3 140/3/3
f 143/2/3 141/2/3 140/2/3
f 144/2/3 141/2/3 143/2/3
f 145/2/3 143/2/3 140/2/3
f 146/2/3 143/2/3 145/2/3
f 147/2/3 141/2/3 144/2/3
f 148/2/3 141/2/3 147/2/3
f 149/1/3 140/1/3 139/1/3
f 149/2/3 145/2/3 140/2/3
f 150/2/3 145/2/3 149/2/3
f 151/2/3 141/2/3 148/2/3
f 152/3/3 142/3/3 141/3/3
f 152/2/3 141/2/3 151/2/3
f 153/1/3 149/1/3 139/1/3
f 156/3/3 142/3/3 152/3/3
f 157/2/3 154/2/3 153/2/3
f 160/2/3 156/2/3 155/2/3
f 161/2/3 158/2/3 157/2/3
f 162/2/3 160/2/3 159/2/3
f 163/1/3 153/1/3 139/1/3
f 164/2/3 161/2/3 157/2/3
f 164/1/3 153/1/3 163/1/3
f 164/2/3 162/2/3 161/2/3
f 164/2/3 157/2/3 153/2/3
f 165/2/3 160/2/3 162/2/3
f 165/2/3 162/2/3 164/2/3
f 165/3/3 142/3/3 156/3/3
f 165/2/3 156/2/3 160/2/3
f 166/3/3 142/3/3 165/3/3
f 171/2/3 168/2/3 167/2/3
f 172/2/3 168/2/3 171/2/3
f 173/2/3 170/2/3 169/2/3
f 174/2/3 170/2/3 173/2/3
f 179/2/3 176/2/3 175/2/3
f 180/2/3 176/2/3 179/2/3
f 181/2/3 178/2/3 177/2/3
f 182/2/3 178/2/3 181/2/3
f 187/2/3 184/2/3 183/2/3
f 188/2/3 184/2/3 187/2/3
f 189/2/3 186/2/3 185/2/3
f 190/2/3 186/2/3 189/2/3
f 195/2/3 192/2/3 191/2/3
f 196/2/3 192/2/3 195/2/3
f 197/2/3 194/2/3 193/2/3
f 198/2/3 194/2/3 197/2/3
f 201/2/3 200/2/3 199/2/3
f 202/2/3 200/2/3 201/2/3
f 205/2/3 204/2/3 203/2/3
f 206/2/3 204/2/3 205/2/3
f 207/2/4 208/2/4 209/2/4
f 209/2/4 208/2/4 210/2/4
f 211/2/4 212/2/4 213/2/4
f 213/2/4 212/2/4 214/2/4
f 215/2/4 216/2/4 219/2/4
f 219/2/4 216/2/4 220/2/4
f 217/2/4 218/2/4 221/2/4
f 221/2/4 218/2/4 222/2/4
f 223/2/4 224/2/4 227/2/4
f 227/2/4 224/2/4 228/2/4
f 225/2/4 226/2/4 229/2/4
f 229/2/4 226/2/4 230/2/4
f 231/2/4 232/2/4 235/2/4
f 235/2/4 232/2/4 236/2/4
f 233/2/4 234/2/4 237/2/4
f 237/2/4 234/2/4 238/2/4
f 239/2/4 240/2/4 243/2/4
f 243/2/4 240/2/4 244/2/4
f 241/2/4 242/2/4 245/2/4
f 245/2/4 242/2/4 246/2/4
f 247/3/4 248/3/4 249/3/4
f 249/3/4 248/3/4 250/3/4
f 250/3/4 248/3/4 251/3/4
f 250/2/4 251/2/4 253/2/4
f 253/2/4 251/2/4 254/2/4
f 250/2/4 253/2/4 255/2/4
f 255/2/4 253/2/4 256/2/4
f 254/2/4 251/2/4 257/2/4
f 257/2/4 251/2/4 258/2/4
f 249/1/4 250/1/4 259/1/4
f 250/2/4 255/2/4 259/2/4
f 259/2/4 255/2/4 260/2/4
f 258/2/4 251/2/4 261/2/4
f 251/3/4 252/3/4 262/3/4
f 261/2/4 251/2/4 262/2/4
f 249/1/4 259/1/4 263/1/4
f 262/3/4 252/3/4 266/3/4
f 263/2/4 264/2/4 267/2/4
f 265/2/4 266/2/4 270/2/4
f 267/2/4 268/2/4 271/2/4
f 269/2/4 270/2/4 272/2/4
f 249/1/4 263/1/4 273/1/4
f 267/2/4 271/2/4 274/2/4
f 273/1/4 263/1/4 274/1/4
f 271/2/4 272/2/4 274/2/4
f 263/2/4 267/2/4 274/2/4
f 272/2/4 270/2/4 275/2/4
f 274/2/4 272/2/4 275/2/4
f 266/3/4 252/3/4 275/3/4
f 270/2/4 266/2/4 275/2/4
f 275/3/4 252/3/4 276/3/4
f 280/3/5 278/3/5 277/3/5
f 281/1/5 279/1/5 278/1/5
f 281/3/5 278/3/5 280/3/5
f 282/1/5 279/1/5 281/1/5
f 288/2/5 284/2/5 283/2/5
f 289/2/5 286/2/5 285/2/5
f 291/2/5 288/2/5 287/2/5
f 292/2/5 284/2/5 288/2/5
f 292/2/5 288/2/5 291/2/5
f 293/2/5 290/2/5 289/2/5
f 293/2/5 289/2/5 285/2/5
f 294/2/5 290/2/5 293/2/5
f 299/2/5 296/2/5 295/2/5
f 300/2/5 296/2/5 299/2/5
f 301/2/5 298/2/5 297/2/5
f 302/2/5 298/2/5 301/2/5
f 303/2/5 296/2/5 300/2/5
f 304/2/5 296/2/5 303/2/5
f 305/2/5 301/2/5 297/2/5
f 306/2/5 301/2/5 305/2/5
f 312/2/5 308/2/5 307/2/5
f 313/2/5 310/2/5 309/2/5
f 315/2/5 312/2/5 311/2/5
f 316/2/5 308/2/5 312/2/5
f 316/2/5 312/2/5 315/2/5
f 317/2/5 314/2/5 313/2/5
f 317/2/5 313/2/5 309/2/5
f 318/2/5 314/2/5 317/2/5
f 323/2/5 320/2/5 319/2/5
f 324/2/5 320/2/5 323/2/5
f 325/2/5 322/2/5 321/2/5
f 326/2/5 322/2/5 325/2/5
f 327/2/5 320/2/5 324/2/5
f 328/2/5 320/2/5 327/2/5
f 329/2/5 325/2/5 321/2/5
f 330/2/5 325/2/5 329/2/5
f 334/3/5 332/3/5 331/3/5
f 335/3/5 332/3/5 334/3/5
f 337/3/5 334/3/5 333/3/5
f 337/3/5 336/3/5 335/3/5
f 337/3/5 335/3/5 334/3/5
f 338/3/5 336/3/5 337/3/5
f 339/3/5 336/3/5 338/3/5
f 340/3/5 336/3/5 339/3/5
f 341/3/5 339/3/5 338/3/5
f 342/3/5 339/3/5 341/3/5
f 343/1/6 344/1/6 346/1/6
f 346/1/6 344/1/6 347/1/6
f 345/1/6 346/1/6 349/1/6
f 347/1/6 348/1/6 349/1/6
f 346/1/6 347/1/6 349/1/6
f 349/1/6 348/1/6 350/1/6
f 350/1/6 348/1/6 351/1/6
f 351/1/6 348/1/6 352/1/6
f 350/1/6 351/1/6 353/1/6
f 353/1/6 351/1/6 354/1/6
f 355/2/6 356/2/6 360/2/6
f 357/2/6 358/2/6 361/2/6
f 359/2/6 360/2/6 363/2/6
f 360/2/6 356/2/6 364/2/6
f 363/2/6 360/2/6 364/2/6
f 361/2/6 362/2/6 365/2/6
f 357/2/6 361/2/6 365/2/6
f 365/2/6 362/2/6 366/2/6
f 367/2/6 368/2/6 371/2/6
f 371/2/6 368/2/6 372/2/6
f 369/2/6 370/2/6 373/2/6
f 373/2/6 370/2/6 374/2/6
f 372/2/6 368/2/6 375/2/6
f 375/2/6 368/2/6 376/2/6
f 369/2/6 373/2/6 377/2/6
f 377/2/6 373/2/6 378/2/6
f 379/2/6 380/2/6 384/2/6
f 381/2/6 382/2/6 385/2/6
f 383/2/6 384/2/6 387/2/6
f 384/2/6 380/2/6 388/2/6
f 387/2/6 384/2/6 388/2/6
f 385/2/6 386/2/6 389/2/6
f 381/2/6 385/2/6 389/2/6
f 389/2/6 386/2/6 390/2/6
f 391/2/6 392/2/6 395/2/6
f 395/2/6 392/2/6 396/2/6
f 393/2/6 394/2/6 397/2/6
f 397/2/6 394/2/6 398/2/6
f 396/2/6 392/2/6 399/2/6
f 399/2/6 392/2/6 400/2/6
f 393/2/6 397/2/6 401/2/6
f 401/2/6 397/2/6 402/2/6
f 403/3/6 404/3/6 405/3/6
f 405/3/6 404/3/6 406/3/6
f 407/3/6 408/3/6 409/3/6
f 409/3/6 408/3/6 410/3/6
