# MagicaVoxel @ Ephtracy

# group
g Torch B

# material
mtllib Torch B.mtl
usemtl palette

# normals
vn -1 0 0
vn 1 0 0
vn 0 0 1
vn 0 0 -1
vn 0 -1 0
vn 0 1 0

# texcoords
vt 0.369141 0.5
vt 0.986328 0.5
vt 0.990234 0.5

# verts
v -1.5 1 0.5
v -1.5 1 -0.5
v -1.5 10 1.5
v -1.5 10 0.5
v -1.5 10 -0.5
v -1.5 10 -1.5
v -1.5 12 1.5
v -1.5 12 0.5
v -1.5 12 -0.5
v -1.5 12 -1.5
v -1.5 16 0.5
v -1.5 16 -0.5
v -0.5 0 0.5
v -0.5 0 -0.5
v -0.5 1 1.5
v -0.5 1 0.5
v -0.5 1 -0.5
v -0.5 1 -1.5
v -0.5 10 1.5
v -0.5 10 0.5
v -0.5 10 -0.5
v -0.5 10 -1.5
v -0.5 12 1.5
v -0.5 12 0.5
v -0.5 12 -0.5
v -0.5 12 -1.5
v -0.5 16 1.5
v -0.5 16 0.5
v -0.5 16 -0.5
v -0.5 16 -1.5
v -0.5 17 0.5
v -0.5 17 -0.5
v 0.5 0 0.5
v 0.5 0 -0.5
v 0.5 1 1.5
v 0.5 1 0.5
v 0.5 1 -0.5
v 0.5 1 -1.5
v 0.5 10 1.5
v 0.5 10 0.5
v 0.5 10 -0.5
v 0.5 10 -1.5
v 0.5 12 1.5
v 0.5 12 0.5
v 0.5 12 -0.5
v 0.5 12 -1.5
v 0.5 16 1.5
v 0.5 16 0.5
v 0.5 16 -0.5
v 0.5 16 -1.5
v 0.5 17 0.5
v 0.5 17 -0.5
v 1.5 1 0.5
v 1.5 1 -0.5
v 1.5 10 1.5
v 1.5 10 0.5
v 1.5 10 -0.5
v 1.5 10 -1.5
v 1.5 12 1.5
v 1.5 12 0.5
v 1.5 12 -0.5
v 1.5 12 -1.5
v 1.5 16 0.5
v 1.5 16 -0.5
v -1.5 10 1.5
v -1.5 12 1.5
v -0.5 1 1.5
v -0.5 10 1.5
v -0.5 12 1.5
v -0.5 16 1.5
v 0.5 1 1.5
v 0.5 10 1.5
v 0.5 12 1.5
v 0.5 16 1.5
v 1.5 10 1.5
v 1.5 12 1.5
v -1.5 1 0.5
v -1.5 10 0.5
v -1.5 12 0.5
v -1.5 16 0.5
v -0.5 0 0.5
v -0.5 1 0.5
v -0.5 10 0.5
v -0.5 12 0.5
v -0.5 16 0.5
v -0.5 17 0.5
v 0.5 0 0.5
v 0.5 1 0.5
v 0.5 10 0.5
v 0.5 12 0.5
v 0.5 16 0.5
v 0.5 17 0.5
v 1.5 1 0.5
v 1.5 10 0.5
v 1.5 12 0.5
v 1.5 16 0.5
v -1.5 1 -0.5
v -1.5 10 -0.5
v -1.5 12 -0.5
v -1.5 16 -0.5
v -0.5 0 -0.5
v -0.5 1 -0.5
v -0.5 10 -0.5
v -0.5 12 -0.5
v -0.5 16 -0.5
v -0.5 17 -0.5
v 0.5 0 -0.5
v 0.5 1 -0.5
v 0.5 10 -0.5
v 0.5 12 -0.5
v 0.5 16 -0.5
v 0.5 17 -0.5
v 1.5 1 -0.5
v 1.5 10 -0.5
v 1.5 12 -0.5
v 1.5 16 -0.5
v -1.5 10 -1.5
v -1.5 12 -1.5
v -0.5 1 -1.5
v -0.5 10 -1.5
v -0.5 12 -1.5
v -0.5 16 -1.5
v 0.5 1 -1.5
v 0.5 10 -1.5
v 0.5 12 -1.5
v 0.5 16 -1.5
v 1.5 10 -1.5
v 1.5 12 -1.5
v -0.5 0 0.5
v 0.5 0 0.5
v -0.5 0 -0.5
v 0.5 0 -0.5
v -0.5 1 1.5
v 0.5 1 1.5
v -1.5 1 0.5
v -0.5 1 0.5
v 0.5 1 0.5
v 1.5 1 0.5
v -1.5 1 -0.5
v -0.5 1 -0.5
v 0.5 1 -0.5
v 1.5 1 -0.5
v -0.5 1 -1.5
v 0.5 1 -1.5
v -1.5 10 1.5
v -0.5 10 1.5
v 0.5 10 1.5
v 1.5 10 1.5
v -1.5 10 0.5
v -0.5 10 0.5
v 0.5 10 0.5
v 1.5 10 0.5
v -1.5 10 -0.5
v -0.5 10 -0.5
v 0.5 10 -0.5
v 1.5 10 -0.5
v -1.5 10 -1.5
v -0.5 10 -1.5
v 0.5 10 -1.5
v 1.5 10 -1.5
v -1.5 12 1.5
v -0.5 12 1.5
v 0.5 12 1.5
v 1.5 12 1.5
v -1.5 12 0.5
v -0.5 12 0.5
v 0.5 12 0.5
v 1.5 12 0.5
v -1.5 12 -0.5
v -0.5 12 -0.5
v 0.5 12 -0.5
v 1.5 12 -0.5
v -1.5 12 -1.5
v -0.5 12 -1.5
v 0.5 12 -1.5
v 1.5 12 -1.5
v -0.5 16 1.5
v 0.5 16 1.5
v -1.5 16 0.5
v -0.5 16 0.5
v 0.5 16 0.5
v 1.5 16 0.5
v -1.5 16 -0.5
v -0.5 16 -0.5
v 0.5 16 -0.5
v 1.5 16 -0.5
v -0.5 16 -1.5
v 0.5 16 -1.5
v -0.5 17 0.5
v 0.5 17 0.5
v -0.5 17 -0.5
v 0.5 17 -0.5

# faces
f 4/1/1 2/1/1 1/1/1
f 5/1/1 2/1/1 4/1/1
f 7/1/1 4/1/1 3/1/1
f 7/1/1 6/1/1 5/1/1
f 7/1/1 5/1/1 4/1/1
f 8/1/1 6/1/1 7/1/1
f 9/1/1 6/1/1 8/1/1
f 10/1/1 6/1/1 9/1/1
f 11/2/1 9/2/1 8/2/1
f 12/2/1 9/2/1 11/2/1
f 16/1/1 14/1/1 13/1/1
f 17/1/1 14/1/1 16/1/1
f 19/1/1 16/1/1 15/1/1
f 20/1/1 16/1/1 19/1/1
f 21/1/1 18/1/1 17/1/1
f 22/1/1 18/1/1 21/1/1
f 27/2/1 24/2/1 23/2/1
f 28/2/1 24/2/1 27/2/1
f 29/2/1 26/2/1 25/2/1
f 30/2/1 26/2/1 29/2/1
f 31/2/1 29/2/1 28/2/1
f 32/2/1 29/2/1 31/2/1
f 33/1/2 34/1/2 36/1/2
f 36/1/2 34/1/2 37/1/2
f 35/1/2 36/1/2 39/1/2
f 39/1/2 36/1/2 40/1/2
f 37/1/2 38/1/2 41/1/2
f 41/1/2 38/1/2 42/1/2
f 43/2/2 44/2/2 47/2/2
f 47/2/2 44/2/2 48/2/2
f 45/2/2 46/2/2 49/2/2
f 49/2/2 46/2/2 50/2/2
f 48/2/2 49/2/2 51/2/2
f 51/2/2 49/2/2 52/2/2
f 53/1/2 54/1/2 56/1/2
f 56/1/2 54/1/2 57/1/2
f 55/1/2 56/1/2 59/1/2
f 57/1/2 58/1/2 59/1/2
f 56/1/2 57/1/2 59/1/2
f 59/1/2 58/1/2 60/1/2
f 60/1/2 58/1/2 61/1/2
f 61/1/2 58/1/2 62/1/2
f 60/2/2 61/2/2 63/2/2
f 63/2/2 61/2/2 64/2/2
f 68/1/3 66/1/3 65/1/3
f 69/1/3 66/1/3 68/1/3
f 71/1/3 68/1/3 67/1/3
f 71/1/3 69/1/3 68/1/3
f 72/1/3 69/1/3 71/1/3
f 73/2/3 70/2/3 69/2/3
f 73/1/3 69/1/3 72/1/3
f 74/2/3 70/2/3 73/2/3
f 75/1/3 73/1/3 72/1/3
f 76/1/3 73/1/3 75/1/3
f 82/1/3 78/1/3 77/1/3
f 83/1/3 78/1/3 82/1/3
f 84/2/3 80/2/3 79/2/3
f 85/2/3 80/2/3 84/2/3
f 87/1/3 82/1/3 81/1/3
f 88/1/3 82/1/3 87/1/3
f 91/2/3 86/2/3 85/2/3
f 92/2/3 86/2/3 91/2/3
f 93/1/3 89/1/3 88/1/3
f 94/1/3 89/1/3 93/1/3
f 95/2/3 91/2/3 90/2/3
f 96/2/3 91/2/3 95/2/3
f 97/1/4 98/1/4 102/1/4
f 102/1/4 98/1/4 103/1/4
f 99/2/4 100/2/4 104/2/4
f 104/2/4 100/2/4 105/2/4
f 101/1/4 102/1/4 107/1/4
f 107/1/4 102/1/4 108/1/4
f 105/2/4 106/2/4 111/2/4
f 111/2/4 106/2/4 112/2/4
f 108/1/4 109/1/4 113/1/4
f 113/1/4 109/1/4 114/1/4
f 110/2/4 111/2/4 115/2/4
f 115/2/4 111/2/4 116/2/4
f 117/1/4 118/1/4 120/1/4
f 120/1/4 118/1/4 121/1/4
f 119/1/4 120/1/4 123/1/4
f 120/1/4 121/1/4 123/1/4
f 123/1/4 121/1/4 124/1/4
f 121/2/4 122/2/4 125/2/4
f 124/1/4 121/1/4 125/1/4
f 125/2/4 122/2/4 126/2/4
f 124/1/4 125/1/4 127/1/4
f 127/1/4 125/1/4 128/1/4
f 131/1/5 130/1/5 129/1/5
f 132/1/5 130/1/5 131/1/5
f 136/1/5 134/1/5 133/1/5
f 137/1/5 134/1/5 136/1/5
f 139/1/5 136/1/5 135/1/5
f 140/1/5 136/1/5 139/1/5
f 141/1/5 138/1/5 137/1/5
f 142/1/5 138/1/5 141/1/5
f 143/1/5 141/1/5 140/1/5
f 144/1/5 141/1/5 143/1/5
f 149/1/5 146/1/5 145/1/5
f 150/1/5 146/1/5 149/1/5
f 151/1/5 148/1/5 147/1/5
f 152/1/5 148/1/5 151/1/5
f 157/1/5 154/1/5 153/1/5
f 158/1/5 154/1/5 157/1/5
f 159/1/5 156/1/5 155/1/5
f 160/1/5 156/1/5 159/1/5
f 161/1/6 162/1/6 165/1/6
f 165/1/6 162/1/6 166/1/6
f 163/1/6 164/1/6 167/1/6
f 167/1/6 164/1/6 168/1/6
f 169/1/6 170/1/6 173/1/6
f 173/1/6 170/1/6 174/1/6
f 171/1/6 172/1/6 175/1/6
f 175/1/6 172/1/6 176/1/6
f 177/2/6 178/2/6 180/2/6
f 180/2/6 178/2/6 181/2/6
f 179/2/6 180/2/6 183/2/6
f 183/2/6 180/2/6 184/2/6
f 181/2/6 182/2/6 185/2/6
f 185/2/6 182/2/6 186/2/6
f 184/2/6 185/2/6 187/2/6
f 187/2/6 185/2/6 188/2/6
f 189/2/6 190/2/6 191/2/6
f 191/2/6 190/2/6 192/2/6
