# MagicaVoxel @ Ephtracy

# group
g Wall Doorway (One Side)

# material
mtllib Wall Doorway (One Side).mtl
usemtl palette

# normals
vn -1 0 0
vn 1 0 0
vn 0 0 1
vn 0 0 -1
vn 0 -1 0
vn 0 1 0

# texcoords
vt 0.0878906 0.5
vt 0.974609 0.5
vt 0.982422 0.5

# verts
v -1 0 9.5
v -1 0 -9.5
v -1 1 9.5
v -1 1 5.5
v -1 1 4.5
v -1 1 -4.5
v -1 1 -5.5
v -1 1 -9.5
v -1 16 4.5
v -1 16 -4.5
v -1 17 5.5
v -1 17 -5.5
v -1 20 9.5
v -1 20 -9.5
v 0 0 9.5
v 0 0 -9.5
v 0 1 9.5
v 0 1 5.5
v 0 1 4.5
v 0 1 -4.5
v 0 1 -5.5
v 0 1 -9.5
v 0 17 5.5
v 0 17 -5.5
v 0 20 9.5
v 0 20 -9.5
v 1 1 5.5
v 1 1 4.5
v 1 1 -4.5
v 1 1 -5.5
v 1 16 4.5
v 1 16 -4.5
v 1 17 5.5
v 1 17 -5.5
v -1 0 9.5
v -1 1 9.5
v -1 20 9.5
v 0 0 9.5
v 0 1 9.5
v 0 20 9.5
v 0 1 5.5
v 0 17 5.5
v 1 1 5.5
v 1 17 5.5
v -1 1 -4.5
v -1 16 -4.5
v 0 1 -4.5
v 1 1 -4.5
v 1 16 -4.5
v -1 1 4.5
v -1 16 4.5
v 0 1 4.5
v 1 1 4.5
v 1 16 4.5
v 0 1 -5.5
v 0 17 -5.5
v 1 1 -5.5
v 1 17 -5.5
v -1 0 -9.5
v -1 1 -9.5
v -1 20 -9.5
v 0 0 -9.5
v 0 1 -9.5
v 0 20 -9.5
v -1 0 9.5
v 0 0 9.5
v -1 0 -9.5
v 0 0 -9.5
v 0 1 5.5
v 1 1 5.5
v 0 1 4.5
v 1 1 4.5
v 0 1 -4.5
v 1 1 -4.5
v 0 1 -5.5
v 1 1 -5.5
v -1 16 4.5
v 1 16 4.5
v -1 16 -4.5
v 1 16 -4.5
v -1 1 4.5
v 0 1 4.5
v -1 1 -4.5
v 0 1 -4.5
v 0 17 5.5
v 1 17 5.5
v 0 17 -5.5
v 1 17 -5.5
v -1 20 9.5
v 0 20 9.5
v -1 20 -9.5
v 0 20 -9.5

# faces
f 3/2/1 2/2/1 1/2/1
f 4/2/1 2/2/1 3/2/1
f 5/2/1 2/2/1 4/2/1
f 6/2/1 2/2/1 5/2/1
f 7/2/1 2/2/1 6/2/1
f 8/2/1 2/2/1 7/2/1
f 9/1/1 5/1/1 4/1/1
f 10/1/1 7/1/1 6/1/1
f 11/3/1 4/3/1 3/3/1
f 11/1/1 10/1/1 9/1/1
f 11/1/1 9/1/1 4/1/1
f 12/1/1 7/1/1 10/1/1
f 12/1/1 10/1/1 11/1/1
f 12/3/1 8/3/1 7/3/1
f 13/3/1 11/3/1 3/3/1
f 13/3/1 12/3/1 11/3/1
f 14/3/1 8/3/1 12/3/1
f 14/3/1 12/3/1 13/3/1
f 15/2/2 16/2/2 17/2/2
f 17/2/2 16/2/2 18/2/2
f 18/2/2 16/2/2 19/2/2
f 19/2/2 16/2/2 20/2/2
f 20/2/2 16/2/2 21/2/2
f 21/2/2 16/2/2 22/2/2
f 17/3/2 18/3/2 23/3/2
f 21/3/2 22/3/2 24/3/2
f 17/3/2 23/3/2 25/3/2
f 23/3/2 24/3/2 25/3/2
f 24/3/2 22/3/2 26/3/2
f 25/3/2 24/3/2 26/3/2
f 27/1/2 28/1/2 31/1/2
f 29/1/2 30/1/2 32/1/2
f 27/1/2 31/1/2 33/1/2
f 31/1/2 32/1/2 33/1/2
f 32/1/2 30/1/2 34/1/2
f 33/1/2 32/1/2 34/1/2
f 38/2/3 36/2/3 35/2/3
f 39/3/3 37/3/3 36/3/3
f 39/2/3 36/2/3 38/2/3
f 40/3/3 37/3/3 39/3/3
f 43/1/3 42/1/3 41/1/3
f 44/1/3 42/1/3 43/1/3
f 47/1/3 46/1/3 45/1/3
f 48/1/3 46/1/3 47/1/3
f 49/1/3 46/1/3 48/1/3
f 50/1/4 51/1/4 52/1/4
f 52/1/4 51/1/4 53/1/4
f 53/1/4 51/1/4 54/1/4
f 55/1/4 56/1/4 57/1/4
f 57/1/4 56/1/4 58/1/4
f 59/2/4 60/2/4 62/2/4
f 60/3/4 61/3/4 63/3/4
f 62/2/4 60/2/4 63/2/4
f 63/3/4 61/3/4 64/3/4
f 67/2/5 66/2/5 65/2/5
f 68/2/5 66/2/5 67/2/5
f 71/1/5 70/1/5 69/1/5
f 72/1/5 70/1/5 71/1/5
f 75/1/5 74/1/5 73/1/5
f 76/1/5 74/1/5 75/1/5
f 79/1/5 78/1/5 77/1/5
f 80/1/5 78/1/5 79/1/5
f 81/2/6 82/2/6 83/2/6
f 83/2/6 82/2/6 84/2/6
f 85/1/6 86/1/6 87/1/6
f 87/1/6 86/1/6 88/1/6
f 89/3/6 90/3/6 91/3/6
f 91/3/6 90/3/6 92/3/6
