# MagicaVoxel @ Ephtracy

# group
g Written Book

# material
mtllib Written Book.mtl
usemtl palette

# normals
vn -1 0 0
vn 1 0 0
vn 0 0 1
vn 0 0 -1
vn 0 -1 0
vn 0 1 0

# texcoords
vt 0.0136719 0.5
vt 0.0878906 0.5
vt 0.986328 0.5

# verts
v -5 0 6.5
v -5 0 -6.5
v -5 1 7.5
v -5 1 6.5
v -5 1 -6.5
v -5 1 -7.5
v -5 2 7.5
v -5 2 -7.5
v -4 0 7.5
v -4 0 6.5
v -4 0 -6.5
v -4 0 -7.5
v -4 1 7.5
v -4 1 6.5
v -4 1 -6.5
v -4 1 -7.5
v 4 0 7.5
v 4 0 6.5
v 4 0 -6.5
v 4 0 -7.5
v 4 1 7.5
v 4 1 6.5
v 4 1 -6.5
v 4 1 -7.5
v 5 0 6.5
v 5 0 -6.5
v 5 1 7.5
v 5 1 6.5
v 5 1 -6.5
v 5 1 -7.5
v 5 2 7.5
v 5 2 -7.5
v -5 1 7.5
v -5 2 7.5
v -4 0 7.5
v -4 1 7.5
v 4 0 7.5
v 4 1 7.5
v 5 1 7.5
v 5 2 7.5
v -5 0 6.5
v -5 1 6.5
v -4 0 6.5
v -4 1 6.5
v 4 0 6.5
v 4 1 6.5
v 5 0 6.5
v 5 1 6.5
v -5 0 -6.5
v -5 1 -6.5
v -4 0 -6.5
v -4 1 -6.5
v 4 0 -6.5
v 4 1 -6.5
v 5 0 -6.5
v 5 1 -6.5
v -5 1 -7.5
v -5 2 -7.5
v -4 0 -7.5
v -4 1 -7.5
v 4 0 -7.5
v 4 1 -7.5
v 5 1 -7.5
v 5 2 -7.5
v -4 0 7.5
v 4 0 7.5
v -5 0 6.5
v -4 0 6.5
v 4 0 6.5
v 5 0 6.5
v -5 0 -6.5
v -4 0 -6.5
v 4 0 -6.5
v 5 0 -6.5
v -4 0 -7.5
v 4 0 -7.5
v -5 1 7.5
v -4 1 7.5
v 4 1 7.5
v 5 1 7.5
v -5 1 6.5
v -4 1 6.5
v 4 1 6.5
v 5 1 6.5
v -5 1 -6.5
v -4 1 -6.5
v 4 1 -6.5
v 5 1 -6.5
v -5 1 -7.5
v -4 1 -7.5
v 4 1 -7.5
v 5 1 -7.5
v -5 2 7.5
v 5 2 7.5
v -4 2 6.5
v 4 2 6.5
v -3 2 5.5
v 3 2 5.5
v -3 2 4.5
v 3 2 4.5
v -3 2 3.5
v 3 2 3.5
v -3 2 2.5
v 3 2 2.5
v -3 2 1.5
v 3 2 1.5
v -3 2 0.5
v 3 2 0.5
v -3 2 -0.5
v 3 2 -0.5
v -3 2 -1.5
v 3 2 -1.5
v -3 2 -2.5
v 3 2 -2.5
v -3 2 -3.5
v 3 2 -3.5
v -3 2 -4.5
v 3 2 -4.5
v -3 2 -5.5
v 3 2 -5.5
v -4 2 -6.5
v 4 2 -6.5
v -5 2 -7.5
v 5 2 -7.5

# faces
f 4/2/1 2/2/1 1/2/1
f 5/2/1 2/2/1 4/2/1
f 7/2/1 4/2/1 3/2/1
f 7/2/1 6/2/1 5/2/1
f 7/2/1 5/2/1 4/2/1
f 8/2/1 6/2/1 7/2/1
f 13/2/1 10/2/1 9/2/1
f 14/2/1 10/2/1 13/2/1
f 15/2/1 12/2/1 11/2/1
f 16/2/1 12/2/1 15/2/1
f 17/2/2 18/2/2 21/2/2
f 21/2/2 18/2/2 22/2/2
f 19/2/2 20/2/2 23/2/2
f 23/2/2 20/2/2 24/2/2
f 25/2/2 26/2/2 28/2/2
f 28/2/2 26/2/2 29/2/2
f 27/2/2 28/2/2 31/2/2
f 29/2/2 30/2/2 31/2/2
f 28/2/2 29/2/2 31/2/2
f 31/2/2 30/2/2 32/2/2
f 36/2/3 34/2/3 33/2/3
f 37/2/3 36/2/3 35/2/3
f 38/2/3 34/2/3 36/2/3
f 38/2/3 36/2/3 37/2/3
f 39/2/3 34/2/3 38/2/3
f 40/2/3 34/2/3 39/2/3
f 43/2/3 42/2/3 41/2/3
f 44/2/3 42/2/3 43/2/3
f 47/2/3 46/2/3 45/2/3
f 48/2/3 46/2/3 47/2/3
f 49/2/4 50/2/4 51/2/4
f 51/2/4 50/2/4 52/2/4
f 53/2/4 54/2/4 55/2/4
f 55/2/4 54/2/4 56/2/4
f 57/2/4 58/2/4 60/2/4
f 59/2/4 60/2/4 61/2/4
f 60/2/4 58/2/4 62/2/4
f 61/2/4 60/2/4 62/2/4
f 62/2/4 58/2/4 63/2/4
f 63/2/4 58/2/4 64/2/4
f 68/2/5 66/2/5 65/2/5
f 69/2/5 66/2/5 68/2/5
f 71/2/5 68/2/5 67/2/5
f 71/2/5 70/2/5 69/2/5
f 71/2/5 69/2/5 68/2/5
f 72/2/5 70/2/5 71/2/5
f 73/2/5 70/2/5 72/2/5
f 74/2/5 70/2/5 73/2/5
f 75/2/5 73/2/5 72/2/5
f 76/2/5 73/2/5 75/2/5
f 81/2/5 78/2/5 77/2/5
f 82/2/5 78/2/5 81/2/5
f 83/2/5 80/2/5 79/2/5
f 84/2/5 80/2/5 83/2/5
f 89/2/5 86/2/5 85/2/5
f 90/2/5 86/2/5 89/2/5
f 91/2/5 88/2/5 87/2/5
f 92/2/5 88/2/5 91/2/5
f 93/2/6 94/2/6 95/2/6
f 95/2/6 94/2/6 96/2/6
f 95/1/6 96/1/6 97/1/6
f 97/1/6 96/1/6 98/1/6
f 95/1/6 97/1/6 99/1/6
f 97/3/6 98/3/6 99/3/6
f 98/1/6 96/1/6 100/1/6
f 99/3/6 98/3/6 100/3/6
f 95/1/6 99/1/6 101/1/6
f 99/1/6 100/1/6 101/1/6
f 100/1/6 96/1/6 102/1/6
f 101/1/6 100/1/6 102/1/6
f 95/1/6 101/1/6 103/1/6
f 101/3/6 102/3/6 103/3/6
f 102/1/6 96/1/6 104/1/6
f 103/3/6 102/3/6 104/3/6
f 95/1/6 103/1/6 105/1/6
f 103/1/6 104/1/6 105/1/6
f 104/1/6 96/1/6 106/1/6
f 105/1/6 104/1/6 106/1/6
f 95/1/6 105/1/6 107/1/6
f 105/3/6 106/3/6 107/3/6
f 106/1/6 96/1/6 108/1/6
f 107/3/6 106/3/6 108/3/6
f 95/1/6 107/1/6 109/1/6
f 107/1/6 108/1/6 109/1/6
f 108/1/6 96/1/6 110/1/6
f 109/1/6 108/1/6 110/1/6
f 95/1/6 109/1/6 111/1/6
f 109/3/6 110/3/6 111/3/6
f 110/1/6 96/1/6 112/1/6
f 111/3/6 110/3/6 112/3/6
f 95/1/6 111/1/6 113/1/6
f 111/1/6 112/1/6 113/1/6
f 112/1/6 96/1/6 114/1/6
f 113/1/6 112/1/6 114/1/6
f 95/1/6 113/1/6 115/1/6
f 113/3/6 114/3/6 115/3/6
f 114/1/6 96/1/6 116/1/6
f 115/3/6 114/3/6 116/3/6
f 95/1/6 115/1/6 117/1/6
f 115/1/6 116/1/6 117/1/6
f 116/1/6 96/1/6 118/1/6
f 117/1/6 116/1/6 118/1/6
f 95/1/6 117/1/6 119/1/6
f 117/3/6 118/3/6 119/3/6
f 118/1/6 96/1/6 120/1/6
f 119/3/6 118/3/6 120/3/6
f 93/2/6 95/2/6 121/2/6
f 95/1/6 119/1/6 121/1/6
f 119/1/6 120/1/6 121/1/6
f 120/1/6 96/1/6 122/1/6
f 121/1/6 120/1/6 122/1/6
f 96/2/6 94/2/6 122/2/6
f 93/2/6 121/2/6 123/2/6
f 121/2/6 122/2/6 123/2/6
f 122/2/6 94/2/6 124/2/6
f 123/2/6 122/2/6 124/2/6
